<svg width="61" height="61" viewBox="0 0 61 61" fill="none" xmlns="http://www.w3.org/2000/svg">
<path d="M39.5112 0.709625C35.8772 1.13028 32.2082 2.77784 29.4038 5.25502C24.7532 9.36809 22.4396 15.5143 23.2459 21.6138C23.4679 23.2146 23.7834 24.4298 24.4377 26.1942C24.8818 27.3744 24.9869 27.8184 25.0454 28.6481C25.1155 29.9684 24.9752 30.6695 24.0989 33.2402C23.5731 34.806 23.3861 35.5187 23.3861 36.0095C23.3744 36.6405 23.4095 36.7106 23.8184 37.1196C24.2274 37.5285 24.2975 37.5636 24.9285 37.5519C25.4193 37.5519 26.1437 37.3649 27.6978 36.8391C30.2918 35.9628 30.9812 35.8225 32.2899 35.8927C33.1196 35.9511 33.5636 36.0562 34.7438 36.5003C36.5082 37.1546 37.7234 37.4701 39.3242 37.6921C42.2104 38.0777 45.2952 37.7389 48.1112 36.734C50.2145 35.9861 52.9721 34.2801 54.4911 32.7962C55.1805 32.1185 55.2974 31.6277 54.865 31.1954C54.4327 30.763 54.0471 30.8915 52.9254 31.8497C52.3528 32.3405 51.4998 32.9948 51.0207 33.3103C49.6536 34.2334 47.0362 35.4253 47.0362 35.1331C47.0479 34.6541 47.2232 34.4321 47.7957 34.175C48.4267 33.9062 48.6838 33.6024 49.4082 32.3405C49.7003 31.838 49.7237 31.6978 49.7237 30.4475C49.7237 29.7114 49.677 28.9752 49.6186 28.8116C49.5017 28.5195 47.9476 27.3043 47.4452 27.1057C47.2699 27.0356 46.896 27.0472 46.487 27.1057C45.5289 27.2692 45.5639 27.2809 45.2134 26.6383C44.9914 26.2176 44.7693 26.0073 44.4188 25.8437C43.4957 25.4114 42.2922 25.0258 41.4392 24.8972C40.9718 24.8271 40.4693 24.6869 40.3408 24.5934C39.9435 24.3247 39.3242 24.3831 38.6582 24.7687C37.8753 25.2244 37.6883 25.4932 37.6883 26.241C37.6883 26.7317 37.6182 26.9538 37.2911 27.4212C36.7536 28.1924 36.7302 28.3092 36.8587 29.5478C36.9522 30.3891 37.0574 30.7864 37.3612 31.3823C37.887 32.4106 38.3076 32.9013 38.8335 33.0649C39.0672 33.1467 39.3008 33.2519 39.3593 33.2869C39.406 33.3337 39.5345 33.9647 39.6514 34.6774C39.8383 35.7875 39.8383 35.9861 39.6981 35.9861C39.1606 35.9861 36.9756 35.4253 35.7136 34.9696C33.7622 34.2568 33.1546 34.1166 31.9043 34.1166C30.5606 34.1166 29.6725 34.3152 27.2538 35.1215C26.1788 35.4954 25.2674 35.7524 25.2323 35.7174C25.1856 35.6706 25.4543 34.7592 25.8166 33.6842C26.6345 31.2304 26.8214 30.3774 26.8098 28.9752C26.8098 27.7483 26.6579 27.1173 25.8983 25.0258C25.1271 22.8991 24.9051 21.6605 24.9051 19.2768C24.9051 17.01 25.057 15.97 25.6763 14.0303L26.0269 12.9203L26.3073 13.6447L26.5761 14.3692L26.3541 15.0119C26.2255 15.3741 26.0269 16.2271 25.8983 16.9282L25.6647 18.1901L25.9568 19.3469C26.2956 20.679 26.3424 20.7491 28.0951 22.1513C29.2285 23.0627 29.2636 23.0978 30.0465 24.5584C30.9345 26.2293 30.9929 26.276 32.3717 26.5214C32.8391 26.6032 33.5753 26.8603 34.0894 27.1173C34.5919 27.3744 35.1527 27.5731 35.3397 27.5731C35.8772 27.5731 36.3563 27.094 36.6367 26.241C36.9405 25.3296 36.8821 25.0491 36.2277 24.2546C35.5617 23.4366 35.3864 23.1445 35.2929 22.6888L35.2112 22.3149H36.2511C37.4313 22.3149 37.6767 22.198 38.0389 21.4969C38.1674 21.2399 38.4245 20.9594 38.6114 20.8543C39.0321 20.6439 39.406 20.1882 39.4995 19.7676C39.5462 19.5105 39.7682 19.3469 40.5628 18.9263C42.0117 18.1784 42.2221 17.6409 41.4976 16.4374C41.2756 16.0752 41.1354 15.7597 41.1704 15.7246C41.2172 15.7013 41.8365 15.4909 42.5492 15.2572C44.1501 14.7314 44.3721 14.5328 44.4422 13.5396C44.4889 12.9086 44.4422 12.7099 43.9981 11.6466C43.7177 10.9923 43.4139 10.373 43.3321 10.2561C43.1101 9.99907 41.7196 9.34472 41.3924 9.34472C41.2405 9.34472 40.8199 9.53167 40.4576 9.76537C39.9201 10.1042 39.628 10.408 39.0788 11.2377C38.3661 12.2893 38.3661 12.2893 37.9571 12.2309C37.7234 12.1841 37.5364 12.1491 37.5131 12.1257C37.1508 11.5999 36.6367 10.4431 36.6367 10.1276C36.6367 9.75368 36.7419 9.64852 38.2025 8.49172C40.037 7.05449 40.0487 7.01943 39.6748 5.61726C39.2424 4.01643 38.9854 3.86453 37.1976 4.15665C36.2745 4.29687 36.0057 4.39035 35.4215 4.79932L34.7321 5.26671L33.9959 4.95122C33.2948 4.63573 33.2715 4.61236 33.5052 4.44877C34.0544 4.06317 36.1576 3.23355 37.3845 2.91806C38.0973 2.74279 39.2074 2.52077 39.8383 2.43898C41.0769 2.28708 43.7294 2.3455 44.2318 2.54414C44.4539 2.62594 44.5941 2.84795 44.8044 3.43219C44.9563 3.85284 45.1783 4.33192 45.2952 4.48383C45.5055 4.75257 45.5055 4.77595 45.2601 5.5004C45.0264 6.17813 45.0264 6.31834 45.1433 7.55694C45.2134 8.2814 45.3302 8.98249 45.4003 9.11102C45.5522 9.39145 46.0313 9.64852 46.6973 9.80042C47.5153 9.98738 47.7957 9.78874 48.7772 8.37487C49.2446 7.69715 49.6887 7.08954 49.7588 7.03112C49.8406 6.97269 50.2963 6.82079 50.7754 6.70394C51.2544 6.5871 51.7802 6.36508 51.9555 6.22486L52.2593 5.9678L53.2525 6.8909C57.9966 11.2844 59.761 18.1551 57.7629 24.4065C57.3539 25.6918 56.8281 26.8836 56.2205 27.8652C55.9868 28.2508 55.7998 28.7065 55.7998 28.8701C55.7998 29.653 56.6762 29.9918 57.2604 29.4426C57.6577 29.0687 58.9781 26.3695 59.4104 25.0608C61.0113 20.1766 60.5556 15.0235 58.1368 10.408C55.7531 5.89769 51.3362 2.43898 46.3117 1.15365C44.2786 0.639515 41.6028 0.464245 39.5112 0.709625ZM47.8892 3.5023C49.3264 4.06317 50.787 4.86943 50.5417 4.95122C50.4482 4.97459 50.0509 5.09144 49.6653 5.1966C48.6838 5.46535 48.5319 5.59388 47.7139 6.80911L46.9778 7.88411L46.8843 7.15965C46.8025 6.54036 46.8259 6.33003 47.0362 5.75747C47.3867 4.83437 47.3634 4.4254 46.931 3.75937C46.5688 3.19849 46.5104 3.0349 46.6389 3.0349C46.674 3.0349 47.2348 3.24523 47.8892 3.5023ZM33.178 6.49362C34.919 7.25313 35.0125 7.25313 36.0525 6.49362C37.069 5.75747 38.0272 5.64062 38.0389 6.25992C38.0389 6.33003 37.4663 6.84416 36.7652 7.40503C36.0641 7.95422 35.3397 8.5852 35.1644 8.79553C34.8606 9.15776 34.8606 9.2045 34.919 10.186C34.9775 11.1559 35.0125 11.2493 35.6669 12.3945C36.4497 13.785 36.6017 13.8784 38.0856 13.9836C39.2541 14.0654 39.3476 13.9953 40.3291 12.5113C41.112 11.3195 41.4041 11.0858 41.778 11.3428C42.0117 11.4947 42.7128 12.932 42.7128 13.2474C42.7128 13.3176 42.1169 13.5629 41.4041 13.785C39.9085 14.2407 39.5345 14.5094 39.3242 15.304C39.2074 15.7246 39.2191 15.8882 39.3826 16.3089C39.4878 16.5776 39.6514 16.8697 39.7449 16.9399C40.0136 17.1736 39.9552 17.2553 39.2424 17.6526C38.3544 18.1434 38.0623 18.4121 37.9805 18.8328C37.922 19.0665 37.7234 19.3002 37.3962 19.5339C37.1158 19.7325 36.8237 20.048 36.7419 20.235C36.6133 20.5622 36.6017 20.5622 35.5617 20.5622C34.4283 20.5622 34.0193 20.7024 33.6103 21.2165C33.3065 21.6138 33.3065 22.0111 33.6103 23.1679C33.809 23.8923 33.9842 24.2429 34.4283 24.8038C34.7438 25.1893 34.9775 25.5282 34.9541 25.5516C34.9307 25.5866 34.6269 25.4581 34.2997 25.2945C33.9609 25.1192 33.3299 24.9206 32.9092 24.8388L32.138 24.6986L31.3668 23.2964C30.6073 21.9176 30.5956 21.8942 29.2636 20.8426C28.0834 19.8961 27.9081 19.7092 27.7329 19.2067C27.4524 18.3771 27.4758 17.8279 27.8848 16.2855C28.3989 14.3225 28.4106 14.1822 28.06 13.3176C27.8731 12.8502 27.7562 12.3477 27.7562 11.9738C27.7562 11.6349 27.6978 11.0858 27.6394 10.7352C27.5225 10.1393 27.5342 10.0925 27.9198 9.51999C28.7962 8.1996 31.1215 5.83927 31.5421 5.83927C31.6239 5.83927 32.3601 6.13139 33.178 6.49362ZM40.9017 26.5682C41.4158 26.6733 42.2337 26.8836 42.7128 27.0589C43.5775 27.351 43.6009 27.3744 44.0332 28.1106C44.302 28.5546 44.5941 28.9168 44.7693 28.9752C44.9446 29.0453 45.3886 29.0337 45.9846 28.9519L46.931 28.8233L47.4218 29.1739L47.9126 29.5361L47.9476 30.4475C47.971 31.3005 47.9476 31.4174 47.6204 31.9198C47.3634 32.3405 47.1063 32.5625 46.5688 32.8312C45.7976 33.2168 45.6107 33.4505 45.412 34.2451C45.3419 34.5489 45.19 35.028 45.0615 35.3084C44.8161 35.9043 44.7693 35.916 42.7011 36.0679L41.6846 36.138L41.6144 35.7992C41.5794 35.6122 41.4392 34.7826 41.3106 33.9413C41.0302 32.2119 40.8666 31.9198 39.9201 31.6043C39.4527 31.4524 39.3359 31.3356 39.0204 30.7513C38.74 30.2606 38.6348 29.8983 38.6114 29.3842C38.5764 28.7532 38.6114 28.6247 38.9269 28.1573C39.184 27.7951 39.3125 27.4212 39.371 26.9421C39.4527 26.3228 39.4878 26.2644 39.7098 26.3228C39.85 26.3578 40.3875 26.463 40.9017 26.5682Z" fill="url(#paint0_linear_55_3962)"/>
<path d="M9.35216 11.6464C8.83803 11.7749 6.23231 13.0836 5.43774 13.6094C3.41627 14.9064 2.13094 16.6124 1.313 19.0779C0.740442 20.7605 0.588539 21.8472 0.600224 24.0674C0.611909 26.4043 0.892345 28.0753 1.64017 30.272C2.10757 31.5924 3.11246 33.8125 3.41627 34.1397C3.84861 34.6188 4.8535 34.2448 4.8535 33.6022C4.8535 33.462 4.61981 32.831 4.32769 32.2117C1.81545 26.825 1.65186 21.3448 3.88366 17.6173C4.56138 16.4956 5.51954 15.5141 5.68313 15.7711C5.75324 15.8646 6.26737 16.7059 6.85161 17.629C8.25379 19.8842 10.2519 22.7119 12.3318 25.3877L12.9511 26.1823L12.5421 26.5212C11.9929 26.9652 11.3269 27.9818 11.0231 28.8348C10.6609 29.828 10.6609 31.8261 11.0348 33.1698C11.3853 34.4201 12.4136 36.4416 13.3834 37.797C14.0261 38.7085 18.3261 43.2071 21.1538 45.918C22.9767 47.6707 25.8395 49.3884 27.8142 49.9025C29.1463 50.2531 30.934 50.2531 31.9623 49.9025C32.9205 49.5637 33.937 48.956 34.4044 48.4302L34.7667 48.0213L36.8933 49.6338C39.1835 51.3748 42.3034 53.5248 44.1145 54.6232C44.7221 54.9854 45.248 55.3126 45.2713 55.336C45.3765 55.4411 44.3716 56.3642 43.6471 56.8433C42.3501 57.6963 40.9479 58.1988 39.0901 58.4792C34.4862 59.192 29.2397 57.5444 23.8764 53.7351C21.5745 52.0876 19.997 50.6737 15.5685 46.2802C10.7777 41.5245 9.44564 40.0756 7.75134 37.797C7.17878 37.0258 6.60623 36.278 6.46601 36.1378C5.82334 35.425 4.76002 36.2079 5.14562 37.1076C5.34427 37.5867 7.19047 40.0172 8.54591 41.5946C10.0065 43.2889 15.5685 48.9327 17.812 51.0009C21.3057 54.2142 24.1218 56.2357 27.4052 57.8833C33.2944 60.8278 38.9148 61.2018 43.4952 58.9349C45.7621 57.8248 47.0708 56.3525 48.5781 53.2093C49.2559 51.8071 49.3143 51.6436 49.3143 50.884C49.3143 49.6571 49.0105 49.2131 47.3629 48.0213C45.8789 46.9579 45.4817 46.8528 45.061 47.3903C44.5936 47.9862 44.7923 48.3601 46.0659 49.2482C47.1643 50.0194 47.62 50.4868 47.62 50.849C47.62 51.1061 46.6618 53.3145 46.3931 53.665C46.2529 53.8637 46.1594 53.8286 44.9909 53.1042C42.502 51.5735 40.0599 49.8675 37.2555 47.7058L35.8183 46.6074L36.718 45.4389C37.793 44.0484 37.8398 44.0017 38.3189 44.0017C38.611 44.0017 39.1134 44.2938 40.539 45.3104C42.5254 46.7126 42.8292 46.8294 43.2732 46.3503C43.5537 46.0582 43.6004 45.6843 43.4134 45.3338C43.2966 45.1117 40.1183 42.8098 39.4406 42.471C38.868 42.1672 37.7697 42.1905 37.1621 42.4943C36.5545 42.8098 36.274 43.1253 34.4278 45.5324C32.9906 47.4253 32.8504 47.5656 32.161 47.9044C29.9058 49.0145 27.0313 48.3017 23.7946 45.8479C22.4041 44.8079 15.9074 38.2878 14.9959 37.0375C14.6454 36.5584 14.178 35.8457 13.9443 35.4601C12.2851 32.6908 12.063 29.9448 13.3601 28.2388C13.5353 28.0168 14.5402 27.1521 15.6035 26.3459C16.6669 25.528 17.6834 24.7217 17.8587 24.5581C18.7234 23.7519 18.9571 22.3614 18.3962 21.3682C18.2326 21.076 16.7136 18.9027 15.031 16.554C11.619 11.7749 11.5372 11.6931 10.2636 11.623C9.88967 11.5996 9.4807 11.6113 9.35216 11.6464ZM10.4856 13.4458C10.6375 13.5043 12.1332 15.5024 13.8508 17.8978C16.3747 21.4383 16.9356 22.3029 16.9356 22.6068C16.9356 23.0975 16.8889 23.1443 15.4984 24.2076L14.3416 25.1073L13.4185 23.9155C11.4671 21.4032 9.73776 18.9377 8.18368 16.4605L7.07362 14.6844L7.44754 14.4507C8.02009 14.1002 9.7845 13.329 10.0182 13.3173C10.1234 13.3173 10.3337 13.3757 10.4856 13.4458Z" fill="#878787"/>
<defs>
<linearGradient id="paint0_linear_55_3962" x1="15.6422" y1="3.06656" x2="67.9644" y2="57.2572" gradientUnits="userSpaceOnUse">
<stop stop-color="#D41700"/>
<stop offset="1" stop-color="#7F0011"/>
</linearGradient>
</defs>
</svg>
