<svg width="32" height="32" viewBox="0 0 32 32" fill="none" xmlns="http://www.w3.org/2000/svg">
<circle cx="16" cy="16" r="16" fill="#232323"/>
<g clip-path="url(#clip0_55_4184)">
<path d="M22.9871 13.116C22.9543 12.3722 22.834 11.8608 22.6617 11.4176C22.4839 10.9472 22.2104 10.5261 21.8521 10.176C21.502 9.82047 21.0781 9.5442 20.6132 9.36921C20.1675 9.19689 19.6587 9.0766 18.9149 9.0438C18.1654 9.00823 17.9275 9 16.0267 9C14.126 9 13.8881 9.00823 13.1414 9.04102C12.3976 9.07382 11.8861 9.19422 11.4431 9.36644C10.9726 9.5442 10.5515 9.8177 10.2014 10.176C9.84586 10.5261 9.5697 10.95 9.3946 11.4149C9.22228 11.8608 9.10199 12.3694 9.06919 13.1133C9.03362 13.8627 9.02539 14.1006 9.02539 16.0014C9.02539 17.9021 9.03362 18.14 9.06641 18.8867C9.09921 19.6306 9.21961 20.142 9.39193 20.5851C9.5697 21.0555 9.84586 21.4766 10.2014 21.8267C10.5515 22.1823 10.9754 22.4585 11.4403 22.6335C11.8861 22.8058 12.3948 22.9261 13.1388 22.9589C13.8853 22.9918 14.1233 23 16.0241 23C17.9248 23 18.1628 22.9918 18.9094 22.9589C19.6533 22.9261 20.1647 22.8058 20.6077 22.6335C21.5486 22.2698 22.2925 21.5259 22.6562 20.5851C22.8284 20.1393 22.9488 19.6306 22.9816 18.8867C23.0144 18.14 23.0227 17.9021 23.0227 16.0014C23.0227 14.1006 23.0199 13.8627 22.9871 13.116ZM21.7264 18.832C21.6962 19.5157 21.5814 19.8849 21.4857 20.1311C21.2504 20.741 20.7664 21.225 20.1565 21.4603C19.9103 21.556 19.5384 21.6709 18.8574 21.7009C18.119 21.7338 17.8975 21.7419 16.0295 21.7419C14.1616 21.7419 13.9373 21.7338 13.2016 21.7009C12.5178 21.6709 12.1486 21.556 11.9025 21.4603C11.599 21.3481 11.3227 21.1703 11.0985 20.9379C10.866 20.7109 10.6882 20.4374 10.5761 20.1339C10.4803 19.8877 10.3655 19.5157 10.3355 18.8348C10.3026 18.0964 10.2945 17.8748 10.2945 16.0068C10.2945 14.1389 10.3026 13.9146 10.3355 13.179C10.3655 12.4952 10.4803 12.126 10.5761 11.8799C10.6882 11.5763 10.866 11.3001 11.1012 11.0758C11.3282 10.8433 11.6017 10.6655 11.9053 10.5534C12.1514 10.4577 12.5234 10.3429 13.2043 10.3128C13.9428 10.28 14.1643 10.2717 16.0322 10.2717C17.9029 10.2717 18.1244 10.28 18.8602 10.3128C19.5439 10.3429 19.9131 10.4577 20.1592 10.5534C20.4627 10.6655 20.739 10.8433 20.9633 11.0758C21.1957 11.3028 21.3735 11.5763 21.4857 11.8799C21.5814 12.126 21.6962 12.4979 21.7264 13.179C21.7592 13.9174 21.7674 14.1389 21.7674 16.0068C21.7674 17.8748 21.7592 18.0936 21.7264 18.832Z" fill="#AB1D1D"/>
<path d="M16.0261 12.4053C14.0406 12.4053 12.4297 14.0161 12.4297 16.0017C12.4297 17.9873 14.0406 19.5981 16.0261 19.5981C18.0117 19.5981 19.6225 17.9873 19.6225 16.0017C19.6225 14.0161 18.0117 12.4053 16.0261 12.4053ZM16.0261 18.3346C14.738 18.3346 13.6932 17.2899 13.6932 16.0017C13.6932 14.7135 14.738 13.6688 16.0261 13.6688C17.3143 13.6688 18.359 14.7135 18.359 16.0017C18.359 17.2899 17.3143 18.3346 16.0261 18.3346V18.3346Z" fill="#AB1D1D"/>
<path d="M20.6051 12.2624C20.6051 12.7261 20.2291 13.102 19.7654 13.102C19.3017 13.102 18.9258 12.7261 18.9258 12.2624C18.9258 11.7987 19.3017 11.4229 19.7654 11.4229C20.2291 11.4229 20.6051 11.7987 20.6051 12.2624V12.2624Z" fill="#AB1D1D"/>
</g>
<defs>
<clipPath id="clip0_55_4184">
<rect width="14" height="14" fill="white" transform="translate(9 9)"/>
</clipPath>
</defs>
</svg>
