<svg width="211" height="132" viewBox="0 0 211 132" fill="none" xmlns="http://www.w3.org/2000/svg">
<path d="M86.1472 5.00049H82.5547V8.59299H86.1472V5.00049Z" fill="#AB1D1D"/>
<path d="M89.7409 5.00049H86.1484V8.59299H89.7409V5.00049Z" fill="#AB1D1D"/>
<path d="M93.3347 5.00049H89.7422V8.59299H93.3347V5.00049Z" fill="#AB1D1D"/>
<path d="M111.298 5H107.705V8.5925H111.298V5Z" fill="#AB1D1D"/>
<path d="M114.889 5.00049H111.297V8.59299H114.889V5.00049Z" fill="#AB1D1D"/>
<path d="M118.481 5.00049H114.889V8.59299H118.481V5.00049Z" fill="#AB1D1D"/>
<path d="M93.3347 8.59277H89.7422V12.1853H93.3347V8.59277Z" fill="#AB1D1D"/>
<path d="M96.9284 8.59229H93.3359V12.1848H96.9284V8.59229Z" fill="#AB1D1D"/>
<path d="M100.516 8.59277H96.9238V12.1853H100.516V8.59277Z" fill="#AB1D1D"/>
<path d="M104.112 8.59229H100.52V12.1848H104.112V8.59229Z" fill="#AB1D1D"/>
<path d="M107.704 8.59277H104.111V12.1853H107.704V8.59277Z" fill="#AB1D1D"/>
<path d="M114.889 8.59229H111.297V12.1848H114.889V8.59229Z" fill="#AB1D1D"/>
<path d="M118.481 8.59277H114.889V12.1853H118.481V8.59277Z" fill="#AB1D1D"/>
<path d="M129.26 8.59277H125.668V12.1853H129.26V8.59277Z" fill="#AB1D1D"/>
<path d="M86.1472 12.1855H82.5547V15.778H86.1472V12.1855Z" fill="#AB1D1D"/>
<path d="M93.3347 12.1855H89.7422V15.778H93.3347V12.1855Z" fill="#AB1D1D"/>
<path d="M96.9284 12.1851H93.3359V15.7776H96.9284V12.1851Z" fill="#AB1D1D"/>
<path d="M107.704 12.1855H104.111V15.778H107.704V12.1855Z" fill="#AB1D1D"/>
<path d="M111.298 12.1851H107.705V15.7776H111.298V12.1851Z" fill="#AB1D1D"/>
<path d="M114.889 12.1851H111.297V15.7776H114.889V12.1851Z" fill="#AB1D1D"/>
<path d="M118.481 12.1855H114.889V15.778H118.481V12.1855Z" fill="#AB1D1D"/>
<path d="M129.26 12.1851H125.668V15.7776H129.26V12.1851Z" fill="#AB1D1D"/>
<path d="M89.7409 15.7778H86.1484V19.3703H89.7409V15.7778Z" fill="#AB1D1D"/>
<path d="M93.3347 15.7778H89.7422V19.3703H93.3347V15.7778Z" fill="#AB1D1D"/>
<path d="M100.516 15.7778H96.9238V19.3703H100.516V15.7778Z" fill="#AB1D1D"/>
<path d="M107.704 15.7778H104.111V19.3703H107.704V15.7778Z" fill="#AB1D1D"/>
<path d="M118.481 15.7778H114.889V19.3703H118.481V15.7778Z" fill="#AB1D1D"/>
<path d="M125.667 15.7773H122.074V19.3698H125.667V15.7773Z" fill="#AB1D1D"/>
<path d="M89.7409 19.3701H86.1484V22.9626H89.7409V19.3701Z" fill="#AB1D1D"/>
<path d="M93.3347 19.3701H89.7422V22.9626H93.3347V19.3701Z" fill="#AB1D1D"/>
<path d="M96.9284 19.3701H93.3359V22.9626H96.9284V19.3701Z" fill="#AB1D1D"/>
<path d="M104.112 19.3701H100.52V22.9626H104.112V19.3701Z" fill="#AB1D1D"/>
<path d="M107.704 19.3701H104.111V22.9626H107.704V19.3701Z" fill="#AB1D1D"/>
<path d="M111.298 19.3701H107.705V22.9626H111.298V19.3701Z" fill="#AB1D1D"/>
<path d="M122.075 19.3701H118.482V22.9626H122.075V19.3701Z" fill="#AB1D1D"/>
<path d="M86.1472 22.9624H82.5547V26.5549H86.1472V22.9624Z" fill="#AB1D1D"/>
<path d="M93.3347 22.9624H89.7422V26.5549H93.3347V22.9624Z" fill="#AB1D1D"/>
<path d="M96.9284 22.9629H93.3359V26.5554H96.9284V22.9629Z" fill="#AB1D1D"/>
<path d="M100.516 22.9624H96.9238V26.5549H100.516V22.9624Z" fill="#AB1D1D"/>
<path d="M111.298 22.9629H107.705V26.5554H111.298V22.9629Z" fill="#AB1D1D"/>
<path d="M118.481 22.9624H114.889V26.5549H118.481V22.9624Z" fill="#AB1D1D"/>
<path d="M122.075 22.9624H118.482V26.5549H122.075V22.9624Z" fill="#AB1D1D"/>
<path d="M86.1472 26.5547H82.5547V30.1472H86.1472V26.5547Z" fill="#AB1D1D"/>
<path d="M93.3347 26.5547H89.7422V30.1472H93.3347V26.5547Z" fill="#AB1D1D"/>
<path d="M100.516 26.5547H96.9238V30.1472H100.516V26.5547Z" fill="#AB1D1D"/>
<path d="M107.704 26.5547H104.111V30.1472H107.704V26.5547Z" fill="#AB1D1D"/>
<path d="M114.889 26.5547H111.297V30.1472H114.889V26.5547Z" fill="#AB1D1D"/>
<path d="M122.075 26.5552H118.482V30.1477H122.075V26.5552Z" fill="#AB1D1D"/>
<path d="M129.26 26.5552H125.668V30.1477H129.26V26.5552Z" fill="#AB1D1D"/>
<path d="M89.7409 30.147H86.1484V33.7395H89.7409V30.147Z" fill="#AB1D1D"/>
<path d="M96.9284 30.1475H93.3359V33.74H96.9284V30.1475Z" fill="#AB1D1D"/>
<path d="M100.516 30.147H96.9238V33.7395H100.516V30.147Z" fill="#AB1D1D"/>
<path d="M107.704 30.147H104.111V33.7395H107.704V30.147Z" fill="#AB1D1D"/>
<path d="M111.298 30.1475H107.705V33.74H111.298V30.1475Z" fill="#AB1D1D"/>
<path d="M114.889 30.1475H111.297V33.74H114.889V30.1475Z" fill="#AB1D1D"/>
<path d="M125.667 30.1475H122.074V33.74H125.667V30.1475Z" fill="#AB1D1D"/>
<path d="M129.26 30.1475H125.668V33.74H129.26V30.1475Z" fill="#AB1D1D"/>
<path d="M57.4109 33.7397H53.8184V37.3322H57.4109V33.7397Z" fill="#AB1D1D"/>
<path d="M64.5945 33.7402H61.002V37.3327H64.5945V33.7402Z" fill="#AB1D1D"/>
<path d="M78.9655 33.7393H75.373V37.3318H78.9655V33.7393Z" fill="#AB1D1D"/>
<path d="M82.5554 33.7393H78.9629V37.3318H82.5554V33.7393Z" fill="#AB1D1D"/>
<path d="M104.112 33.7402H100.52V37.3327H104.112V33.7402Z" fill="#AB1D1D"/>
<path d="M107.704 33.7393H104.111V37.3318H107.704V33.7393Z" fill="#AB1D1D"/>
<path d="M129.26 33.7397H125.668V37.3322H129.26V33.7397Z" fill="#AB1D1D"/>
<path d="M140.038 33.7393H136.445V37.3318H140.038V33.7393Z" fill="#AB1D1D"/>
<path d="M150.815 33.7397H147.223V37.3322H150.815V33.7397Z" fill="#AB1D1D"/>
<path d="M157.999 33.7393H154.406V37.3318H157.999V33.7393Z" fill="#AB1D1D"/>
<path d="M57.4109 37.3325H53.8184V40.925H57.4109V37.3325Z" fill="#AB1D1D"/>
<path d="M61.0007 37.332H57.4082V40.9245H61.0007V37.332Z" fill="#AB1D1D"/>
<path d="M64.5945 37.3325H61.002V40.925H64.5945V37.3325Z" fill="#AB1D1D"/>
<path d="M68.1882 37.332H64.5957V40.9245H68.1882V37.332Z" fill="#AB1D1D"/>
<path d="M75.3737 37.3325H71.7812V40.925H75.3737V37.3325Z" fill="#AB1D1D"/>
<path d="M82.5554 37.332H78.9629V40.9245H82.5554V37.332Z" fill="#AB1D1D"/>
<path d="M89.7409 37.332H86.1484V40.9245H89.7409V37.332Z" fill="#AB1D1D"/>
<path d="M104.112 37.3325H100.52V40.925H104.112V37.3325Z" fill="#AB1D1D"/>
<path d="M107.704 37.332H104.111V40.9245H107.704V37.332Z" fill="#AB1D1D"/>
<path d="M125.667 37.3325H122.074V40.925H125.667V37.3325Z" fill="#AB1D1D"/>
<path d="M129.26 37.3325H125.668V40.925H129.26V37.3325Z" fill="#AB1D1D"/>
<path d="M136.446 37.332H132.854V40.9245H136.446V37.332Z" fill="#AB1D1D"/>
<path d="M140.038 37.332H136.445V40.9245H140.038V37.332Z" fill="#AB1D1D"/>
<path d="M154.407 37.3325H150.814V40.925H154.407V37.3325Z" fill="#AB1D1D"/>
<path d="M157.999 37.332H154.406V40.9245H157.999V37.332Z" fill="#AB1D1D"/>
<path d="M61.0007 40.9248H57.4082V44.5173H61.0007V40.9248Z" fill="#AB1D1D"/>
<path d="M64.5945 40.9248H61.002V44.5173H64.5945V40.9248Z" fill="#AB1D1D"/>
<path d="M68.1882 40.9248H64.5957V44.5173H68.1882V40.9248Z" fill="#AB1D1D"/>
<path d="M71.78 40.9248H68.1875V44.5173H71.78V40.9248Z" fill="#AB1D1D"/>
<path d="M78.9655 40.9248H75.373V44.5173H78.9655V40.9248Z" fill="#AB1D1D"/>
<path d="M82.5554 40.9248H78.9629V44.5173H82.5554V40.9248Z" fill="#AB1D1D"/>
<path d="M96.9284 40.9248H93.3359V44.5173H96.9284V40.9248Z" fill="#AB1D1D"/>
<path d="M100.516 40.9248H96.9238V44.5173H100.516V40.9248Z" fill="#AB1D1D"/>
<path d="M111.298 40.9248H107.705V44.5173H111.298V40.9248Z" fill="#AB1D1D"/>
<path d="M122.075 40.9248H118.482V44.5173H122.075V40.9248Z" fill="#AB1D1D"/>
<path d="M125.667 40.9248H122.074V44.5173H125.667V40.9248Z" fill="#AB1D1D"/>
<path d="M140.038 40.9248H136.445V44.5173H140.038V40.9248Z" fill="#AB1D1D"/>
<path d="M147.221 40.9248H143.629V44.5173H147.221V40.9248Z" fill="#AB1D1D"/>
<path d="M150.815 40.9248H147.223V44.5173H150.815V40.9248Z" fill="#AB1D1D"/>
<path d="M157.999 40.9248H154.406V44.5173H157.999V40.9248Z" fill="#AB1D1D"/>
<path d="M57.4109 44.5176H53.8184V48.1101H57.4109V44.5176Z" fill="#AB1D1D"/>
<path d="M71.78 44.5181H68.1875V48.1106H71.78V44.5181Z" fill="#AB1D1D"/>
<path d="M82.5554 44.5181H78.9629V48.1106H82.5554V44.5181Z" fill="#AB1D1D"/>
<path d="M86.1472 44.5181H82.5547V48.1106H86.1472V44.5181Z" fill="#AB1D1D"/>
<path d="M89.7409 44.5181H86.1484V48.1106H89.7409V44.5181Z" fill="#AB1D1D"/>
<path d="M93.3347 44.5181H89.7422V48.1106H93.3347V44.5181Z" fill="#AB1D1D"/>
<path d="M96.9284 44.5176H93.3359V48.1101H96.9284V44.5176Z" fill="#AB1D1D"/>
<path d="M100.516 44.5181H96.9238V48.1106H100.516V44.5181Z" fill="#AB1D1D"/>
<path d="M104.112 44.5176H100.52V48.1101H104.112V44.5176Z" fill="#AB1D1D"/>
<path d="M122.075 44.5176H118.482V48.1101H122.075V44.5176Z" fill="#AB1D1D"/>
<path d="M132.852 44.5176H129.26V48.1101H132.852V44.5176Z" fill="#AB1D1D"/>
<path d="M140.038 44.5181H136.445V48.1106H140.038V44.5181Z" fill="#AB1D1D"/>
<path d="M143.63 44.5176H140.037V48.1101H143.63V44.5176Z" fill="#AB1D1D"/>
<path d="M147.221 44.5181H143.629V48.1106H147.221V44.5181Z" fill="#AB1D1D"/>
<path d="M71.78 48.1104H68.1875V51.7028H71.78V48.1104Z" fill="#AB1D1D"/>
<path d="M75.3737 48.1099H71.7812V51.7024H75.3737V48.1099Z" fill="#AB1D1D"/>
<path d="M78.9655 48.1104H75.373V51.7028H78.9655V48.1104Z" fill="#AB1D1D"/>
<path d="M82.5554 48.1104H78.9629V51.7028H82.5554V48.1104Z" fill="#AB1D1D"/>
<path d="M89.7409 48.1104H86.1484V51.7028H89.7409V48.1104Z" fill="#AB1D1D"/>
<path d="M93.3347 48.1104H89.7422V51.7028H93.3347V48.1104Z" fill="#AB1D1D"/>
<path d="M104.112 48.1099H100.52V51.7024H104.112V48.1099Z" fill="#AB1D1D"/>
<path d="M111.298 48.1099H107.705V51.7024H111.298V48.1099Z" fill="#AB1D1D"/>
<path d="M114.889 48.1099H111.297V51.7024H114.889V48.1099Z" fill="#AB1D1D"/>
<path d="M129.26 48.1099H125.668V51.7024H129.26V48.1099Z" fill="#AB1D1D"/>
<path d="M136.446 48.1104H132.854V51.7028H136.446V48.1104Z" fill="#AB1D1D"/>
<path d="M140.038 48.1104H136.445V51.7028H140.038V48.1104Z" fill="#AB1D1D"/>
<path d="M157.999 48.1104H154.406V51.7028H157.999V48.1104Z" fill="#AB1D1D"/>
<path d="M68.1882 51.7021H64.5957V55.2946H68.1882V51.7021Z" fill="#AB1D1D"/>
<path d="M71.78 51.7021H68.1875V55.2946H71.78V51.7021Z" fill="#AB1D1D"/>
<path d="M89.7409 51.7021H86.1484V55.2946H89.7409V51.7021Z" fill="#AB1D1D"/>
<path d="M96.9284 51.7026H93.3359V55.2951H96.9284V51.7026Z" fill="#AB1D1D"/>
<path d="M114.889 51.7026H111.297V55.2951H114.889V51.7026Z" fill="#AB1D1D"/>
<path d="M118.481 51.7021H114.889V55.2946H118.481V51.7021Z" fill="#AB1D1D"/>
<path d="M125.667 51.7021H122.074V55.2946H125.667V51.7021Z" fill="#AB1D1D"/>
<path d="M129.26 51.7021H125.668V55.2946H129.26V51.7021Z" fill="#AB1D1D"/>
<path d="M136.446 51.7021H132.854V55.2946H136.446V51.7021Z" fill="#AB1D1D"/>
<path d="M154.407 51.7026H150.814V55.2951H154.407V51.7026Z" fill="#AB1D1D"/>
<path d="M157.999 51.7021H154.406V55.2946H157.999V51.7021Z" fill="#AB1D1D"/>
<path d="M57.4109 55.2954H53.8184V58.8879H57.4109V55.2954Z" fill="#AB1D1D"/>
<path d="M61.0007 55.2954H57.4082V58.8879H61.0007V55.2954Z" fill="#AB1D1D"/>
<path d="M71.78 55.2954H68.1875V58.8879H71.78V55.2954Z" fill="#AB1D1D"/>
<path d="M78.9655 55.2954H75.373V58.8879H78.9655V55.2954Z" fill="#AB1D1D"/>
<path d="M89.7409 55.2954H86.1484V58.8879H89.7409V55.2954Z" fill="#AB1D1D"/>
<path d="M100.516 55.2954H96.9238V58.8879H100.516V55.2954Z" fill="#AB1D1D"/>
<path d="M104.112 55.2949H100.52V58.8874H104.112V55.2949Z" fill="#AB1D1D"/>
<path d="M107.704 55.2954H104.111V58.8879H107.704V55.2954Z" fill="#AB1D1D"/>
<path d="M114.889 55.2954H111.297V58.8879H114.889V55.2954Z" fill="#AB1D1D"/>
<path d="M125.667 55.2949H122.074V58.8874H125.667V55.2949Z" fill="#AB1D1D"/>
<path d="M129.26 55.2949H125.668V58.8874H129.26V55.2949Z" fill="#AB1D1D"/>
<path d="M136.446 55.2954H132.854V58.8879H136.446V55.2954Z" fill="#AB1D1D"/>
<path d="M157.999 55.2954H154.406V58.8879H157.999V55.2954Z" fill="#AB1D1D"/>
<path d="M68.1882 58.8877H64.5957V62.4802H68.1882V58.8877Z" fill="#AB1D1D"/>
<path d="M75.3737 58.8872H71.7812V62.4797H75.3737V58.8872Z" fill="#AB1D1D"/>
<path d="M86.1472 58.8877H82.5547V62.4802H86.1472V58.8877Z" fill="#AB1D1D"/>
<path d="M107.704 58.8877H104.111V62.4802H107.704V58.8877Z" fill="#AB1D1D"/>
<path d="M111.298 58.8877H107.705V62.4802H111.298V58.8877Z" fill="#AB1D1D"/>
<path d="M114.889 58.8872H111.297V62.4797H114.889V58.8872Z" fill="#AB1D1D"/>
<path d="M122.075 58.8877H118.482V62.4802H122.075V58.8877Z" fill="#AB1D1D"/>
<path d="M129.26 58.8877H125.668V62.4802H129.26V58.8877Z" fill="#AB1D1D"/>
<path d="M132.852 58.8877H129.26V62.4802H132.852V58.8877Z" fill="#AB1D1D"/>
<path d="M140.038 58.8877H136.445V62.4802H140.038V58.8877Z" fill="#AB1D1D"/>
<path d="M57.4109 62.48H53.8184V66.0725H57.4109V62.48Z" fill="#AB1D1D"/>
<path d="M61.0007 62.4805H57.4082V66.073H61.0007V62.4805Z" fill="#AB1D1D"/>
<path d="M64.5945 62.48H61.002V66.0725H64.5945V62.48Z" fill="#AB1D1D"/>
<path d="M71.78 62.4805H68.1875V66.073H71.78V62.4805Z" fill="#AB1D1D"/>
<path d="M75.3737 62.48H71.7812V66.0725H75.3737V62.48Z" fill="#AB1D1D"/>
<path d="M78.9655 62.4805H75.373V66.073H78.9655V62.4805Z" fill="#AB1D1D"/>
<path d="M82.5554 62.4805H78.9629V66.073H82.5554V62.4805Z" fill="#AB1D1D"/>
<path d="M89.7409 62.4805H86.1484V66.073H89.7409V62.4805Z" fill="#AB1D1D"/>
<path d="M93.3347 62.4805H89.7422V66.073H93.3347V62.4805Z" fill="#AB1D1D"/>
<path d="M96.9284 62.48H93.3359V66.0725H96.9284V62.48Z" fill="#AB1D1D"/>
<path d="M100.516 62.4805H96.9238V66.073H100.516V62.4805Z" fill="#AB1D1D"/>
<path d="M104.112 62.48H100.52V66.0725H104.112V62.48Z" fill="#AB1D1D"/>
<path d="M107.704 62.4805H104.111V66.073H107.704V62.4805Z" fill="#AB1D1D"/>
<path d="M114.889 62.48H111.297V66.0725H114.889V62.48Z" fill="#AB1D1D"/>
<path d="M129.26 62.48H125.668V66.0725H129.26V62.48Z" fill="#AB1D1D"/>
<path d="M136.446 62.4805H132.854V66.073H136.446V62.4805Z" fill="#AB1D1D"/>
<path d="M157.999 62.4805H154.406V66.073H157.999V62.4805Z" fill="#AB1D1D"/>
<path d="M61.0007 66.0723H57.4082V69.6648H61.0007V66.0723Z" fill="#AB1D1D"/>
<path d="M71.78 66.0723H68.1875V69.6648H71.78V66.0723Z" fill="#AB1D1D"/>
<path d="M82.5554 66.0723H78.9629V69.6648H82.5554V66.0723Z" fill="#AB1D1D"/>
<path d="M86.1472 66.0723H82.5547V69.6648H86.1472V66.0723Z" fill="#AB1D1D"/>
<path d="M89.7409 66.0723H86.1484V69.6648H89.7409V66.0723Z" fill="#AB1D1D"/>
<path d="M96.9284 66.0728H93.3359V69.6653H96.9284V66.0728Z" fill="#AB1D1D"/>
<path d="M104.112 66.0723H100.52V69.6648H104.112V66.0723Z" fill="#AB1D1D"/>
<path d="M107.704 66.0723H104.111V69.6648H107.704V66.0723Z" fill="#AB1D1D"/>
<path d="M118.481 66.0723H114.889V69.6648H118.481V66.0723Z" fill="#AB1D1D"/>
<path d="M125.667 66.0728H122.074V69.6653H125.667V66.0728Z" fill="#AB1D1D"/>
<path d="M129.26 66.0728H125.668V69.6653H129.26V66.0728Z" fill="#AB1D1D"/>
<path d="M136.446 66.0723H132.854V69.6648H136.446V66.0723Z" fill="#AB1D1D"/>
<path d="M140.038 66.0723H136.445V69.6648H140.038V66.0723Z" fill="#AB1D1D"/>
<path d="M150.815 66.0728H147.223V69.6653H150.815V66.0728Z" fill="#AB1D1D"/>
<path d="M154.407 66.0728H150.814V69.6653H154.407V66.0728Z" fill="#AB1D1D"/>
<path d="M157.999 66.0723H154.406V69.6648H157.999V66.0723Z" fill="#AB1D1D"/>
<path d="M57.4109 69.665H53.8184V73.2575H57.4109V69.665Z" fill="#AB1D1D"/>
<path d="M61.0007 69.6646H57.4082V73.257H61.0007V69.6646Z" fill="#AB1D1D"/>
<path d="M71.78 69.6646H68.1875V73.257H71.78V69.6646Z" fill="#AB1D1D"/>
<path d="M75.3737 69.665H71.7812V73.2575H75.3737V69.665Z" fill="#AB1D1D"/>
<path d="M78.9655 69.6646H75.373V73.257H78.9655V69.6646Z" fill="#AB1D1D"/>
<path d="M82.5554 69.6646H78.9629V73.257H82.5554V69.6646Z" fill="#AB1D1D"/>
<path d="M89.7409 69.6646H86.1484V73.257H89.7409V69.6646Z" fill="#AB1D1D"/>
<path d="M93.3347 69.6646H89.7422V73.257H93.3347V69.6646Z" fill="#AB1D1D"/>
<path d="M96.9284 69.665H93.3359V73.2575H96.9284V69.665Z" fill="#AB1D1D"/>
<path d="M111.298 69.665H107.705V73.2575H111.298V69.665Z" fill="#AB1D1D"/>
<path d="M114.889 69.665H111.297V73.2575H114.889V69.665Z" fill="#AB1D1D"/>
<path d="M118.481 69.6646H114.889V73.257H118.481V69.6646Z" fill="#AB1D1D"/>
<path d="M125.667 69.665H122.074V73.2575H125.667V69.665Z" fill="#AB1D1D"/>
<path d="M147.221 69.6646H143.629V73.257H147.221V69.6646Z" fill="#AB1D1D"/>
<path d="M157.999 69.6646H154.406V73.257H157.999V69.6646Z" fill="#AB1D1D"/>
<path d="M71.78 73.2573H68.1875V76.8498H71.78V73.2573Z" fill="#AB1D1D"/>
<path d="M75.3737 73.2568H71.7812V76.8493H75.3737V73.2568Z" fill="#AB1D1D"/>
<path d="M89.7409 73.2573H86.1484V76.8498H89.7409V73.2573Z" fill="#AB1D1D"/>
<path d="M93.3347 73.2573H89.7422V76.8498H93.3347V73.2573Z" fill="#AB1D1D"/>
<path d="M100.516 73.2573H96.9238V76.8498H100.516V73.2573Z" fill="#AB1D1D"/>
<path d="M104.112 73.2573H100.52V76.8498H104.112V73.2573Z" fill="#AB1D1D"/>
<path d="M114.889 73.2568H111.297V76.8493H114.889V73.2568Z" fill="#AB1D1D"/>
<path d="M122.075 73.2573H118.482V76.8498H122.075V73.2573Z" fill="#AB1D1D"/>
<path d="M132.852 73.2573H129.26V76.8498H132.852V73.2573Z" fill="#AB1D1D"/>
<path d="M140.038 73.2573H136.445V76.8498H140.038V73.2573Z" fill="#AB1D1D"/>
<path d="M57.4109 76.8501H53.8184V80.4426H57.4109V76.8501Z" fill="#AB1D1D"/>
<path d="M61.0007 76.8501H57.4082V80.4426H61.0007V76.8501Z" fill="#AB1D1D"/>
<path d="M68.1882 76.8501H64.5957V80.4426H68.1882V76.8501Z" fill="#AB1D1D"/>
<path d="M71.78 76.8501H68.1875V80.4426H71.78V76.8501Z" fill="#AB1D1D"/>
<path d="M78.9655 76.8501H75.373V80.4426H78.9655V76.8501Z" fill="#AB1D1D"/>
<path d="M82.5554 76.8501H78.9629V80.4426H82.5554V76.8501Z" fill="#AB1D1D"/>
<path d="M93.3347 76.8501H89.7422V80.4426H93.3347V76.8501Z" fill="#AB1D1D"/>
<path d="M96.9284 76.8501H93.3359V80.4426H96.9284V76.8501Z" fill="#AB1D1D"/>
<path d="M104.112 76.8501H100.52V80.4426H104.112V76.8501Z" fill="#AB1D1D"/>
<path d="M111.298 76.8501H107.705V80.4426H111.298V76.8501Z" fill="#AB1D1D"/>
<path d="M122.075 76.8501H118.482V80.4426H122.075V76.8501Z" fill="#AB1D1D"/>
<path d="M129.26 76.8501H125.668V80.4426H129.26V76.8501Z" fill="#AB1D1D"/>
<path d="M132.852 76.8501H129.26V80.4426H132.852V76.8501Z" fill="#AB1D1D"/>
<path d="M136.446 76.8501H132.854V80.4426H136.446V76.8501Z" fill="#AB1D1D"/>
<path d="M140.038 76.8501H136.445V80.4426H140.038V76.8501Z" fill="#AB1D1D"/>
<path d="M143.63 76.8501H140.037V80.4426H143.63V76.8501Z" fill="#AB1D1D"/>
<path d="M147.221 76.8501H143.629V80.4426H147.221V76.8501Z" fill="#AB1D1D"/>
<path d="M154.407 76.8501H150.814V80.4426H154.407V76.8501Z" fill="#AB1D1D"/>
<path d="M86.1472 80.4424H82.5547V84.0349H86.1472V80.4424Z" fill="#AB1D1D"/>
<path d="M89.7409 80.4424H86.1484V84.0349H89.7409V80.4424Z" fill="#AB1D1D"/>
<path d="M93.3347 80.4424H89.7422V84.0349H93.3347V80.4424Z" fill="#AB1D1D"/>
<path d="M96.9284 80.4429H93.3359V84.0354H96.9284V80.4429Z" fill="#AB1D1D"/>
<path d="M100.516 80.4424H96.9238V84.0349H100.516V80.4424Z" fill="#AB1D1D"/>
<path d="M111.298 80.4424H107.705V84.0349H111.298V80.4424Z" fill="#AB1D1D"/>
<path d="M118.481 80.4424H114.889V84.0349H118.481V80.4424Z" fill="#AB1D1D"/>
<path d="M125.667 80.4424H122.074V84.0349H125.667V80.4424Z" fill="#AB1D1D"/>
<path d="M129.26 80.4424H125.668V84.0349H129.26V80.4424Z" fill="#AB1D1D"/>
<path d="M143.63 80.4424H140.037V84.0349H143.63V80.4424Z" fill="#AB1D1D"/>
<path d="M147.221 80.4424H143.629V84.0349H147.221V80.4424Z" fill="#AB1D1D"/>
<path d="M150.815 80.4424H147.223V84.0349H150.815V80.4424Z" fill="#AB1D1D"/>
<path d="M157.999 80.4424H154.406V84.0349H157.999V80.4424Z" fill="#AB1D1D"/>
<path d="M86.1472 84.0347H82.5547V87.6272H86.1472V84.0347Z" fill="#AB1D1D"/>
<path d="M89.7409 84.0347H86.1484V87.6272H89.7409V84.0347Z" fill="#AB1D1D"/>
<path d="M93.3347 84.0347H89.7422V87.6272H93.3347V84.0347Z" fill="#AB1D1D"/>
<path d="M96.9284 84.0352H93.3359V87.6277H96.9284V84.0352Z" fill="#AB1D1D"/>
<path d="M100.516 84.0347H96.9238V87.6272H100.516V84.0347Z" fill="#AB1D1D"/>
<path d="M104.112 84.0352H100.52V87.6277H104.112V84.0352Z" fill="#AB1D1D"/>
<path d="M107.704 84.0347H104.111V87.6272H107.704V84.0347Z" fill="#AB1D1D"/>
<path d="M111.298 84.0347H107.705V87.6272H111.298V84.0347Z" fill="#AB1D1D"/>
<path d="M129.26 84.0347H125.668V87.6272H129.26V84.0347Z" fill="#AB1D1D"/>
<path d="M136.446 84.0347H132.854V87.6272H136.446V84.0347Z" fill="#AB1D1D"/>
<path d="M143.63 84.0352H140.037V87.6277H143.63V84.0352Z" fill="#AB1D1D"/>
<path d="M157.999 84.0347H154.406V87.6272H157.999V84.0347Z" fill="#AB1D1D"/>
<path d="M93.3347 87.6274H89.7422V91.2199H93.3347V87.6274Z" fill="#AB1D1D"/>
<path d="M96.9284 87.6279H93.3359V91.2204H96.9284V87.6279Z" fill="#AB1D1D"/>
<path d="M100.516 87.6274H96.9238V91.2199H100.516V87.6274Z" fill="#AB1D1D"/>
<path d="M107.704 87.6274H104.111V91.2199H107.704V87.6274Z" fill="#AB1D1D"/>
<path d="M111.298 87.6274H107.705V91.2199H111.298V87.6274Z" fill="#AB1D1D"/>
<path d="M122.075 87.6274H118.482V91.2199H122.075V87.6274Z" fill="#AB1D1D"/>
<path d="M125.667 87.6274H122.074V91.2199H125.667V87.6274Z" fill="#AB1D1D"/>
<path d="M129.26 87.6274H125.668V91.2199H129.26V87.6274Z" fill="#AB1D1D"/>
<path d="M143.63 87.6274H140.037V91.2199H143.63V87.6274Z" fill="#AB1D1D"/>
<path d="M89.7409 91.2197H86.1484V94.8122H89.7409V91.2197Z" fill="#AB1D1D"/>
<path d="M93.3347 91.2197H89.7422V94.8122H93.3347V91.2197Z" fill="#AB1D1D"/>
<path d="M96.9284 91.2197H93.3359V94.8122H96.9284V91.2197Z" fill="#AB1D1D"/>
<path d="M100.516 91.2197H96.9238V94.8122H100.516V91.2197Z" fill="#AB1D1D"/>
<path d="M104.112 91.2197H100.52V94.8122H104.112V91.2197Z" fill="#AB1D1D"/>
<path d="M107.704 91.2197H104.111V94.8122H107.704V91.2197Z" fill="#AB1D1D"/>
<path d="M111.298 91.2197H107.705V94.8122H111.298V91.2197Z" fill="#AB1D1D"/>
<path d="M122.075 91.2197H118.482V94.8122H122.075V91.2197Z" fill="#AB1D1D"/>
<path d="M125.667 91.2197H122.074V94.8122H125.667V91.2197Z" fill="#AB1D1D"/>
<path d="M129.26 91.2197H125.668V94.8122H129.26V91.2197Z" fill="#AB1D1D"/>
<path d="M132.852 91.2197H129.26V94.8122H132.852V91.2197Z" fill="#AB1D1D"/>
<path d="M136.446 91.2197H132.854V94.8122H136.446V91.2197Z" fill="#AB1D1D"/>
<path d="M140.038 91.2197H136.445V94.8122H140.038V91.2197Z" fill="#AB1D1D"/>
<path d="M143.63 91.2197H140.037V94.8122H143.63V91.2197Z" fill="#AB1D1D"/>
<path d="M147.221 91.2197H143.629V94.8122H147.221V91.2197Z" fill="#AB1D1D"/>
<path d="M154.407 91.2197H150.814V94.8122H154.407V91.2197Z" fill="#AB1D1D"/>
<path d="M157.999 91.2197H154.406V94.8122H157.999V91.2197Z" fill="#AB1D1D"/>
<path d="M89.7409 94.813H86.1484V98.4055H89.7409V94.813Z" fill="#AB1D1D"/>
<path d="M93.3347 94.813H89.7422V98.4055H93.3347V94.813Z" fill="#AB1D1D"/>
<path d="M96.9284 94.8125H93.3359V98.405H96.9284V94.8125Z" fill="#AB1D1D"/>
<path d="M100.516 94.813H96.9238V98.4055H100.516V94.813Z" fill="#AB1D1D"/>
<path d="M104.112 94.8125H100.52V98.405H104.112V94.8125Z" fill="#AB1D1D"/>
<path d="M107.704 94.813H104.111V98.4055H107.704V94.813Z" fill="#AB1D1D"/>
<path d="M111.298 94.8125H107.705V98.405H111.298V94.8125Z" fill="#AB1D1D"/>
<path d="M122.075 94.8125H118.482V98.405H122.075V94.8125Z" fill="#AB1D1D"/>
<path d="M129.26 94.8125H125.668V98.405H129.26V94.8125Z" fill="#AB1D1D"/>
<path d="M132.852 94.8125H129.26V98.405H132.852V94.8125Z" fill="#AB1D1D"/>
<path d="M140.038 94.813H136.445V98.4055H140.038V94.813Z" fill="#AB1D1D"/>
<path d="M143.63 94.8125H140.037V98.405H143.63V94.8125Z" fill="#AB1D1D"/>
<path d="M147.221 94.813H143.629V98.4055H147.221V94.813Z" fill="#AB1D1D"/>
<path d="M150.815 94.8125H147.223V98.405H150.815V94.8125Z" fill="#AB1D1D"/>
<path d="M157.999 94.813H154.406V98.4055H157.999V94.813Z" fill="#AB1D1D"/>
<path d="M86.1472 98.4053H82.5547V101.998H86.1472V98.4053Z" fill="#AB1D1D"/>
<path d="M89.7409 98.4053H86.1484V101.998H89.7409V98.4053Z" fill="#AB1D1D"/>
<path d="M93.3347 98.4053H89.7422V101.998H93.3347V98.4053Z" fill="#AB1D1D"/>
<path d="M111.298 98.4048H107.705V101.997H111.298V98.4048Z" fill="#AB1D1D"/>
<path d="M122.075 98.4053H118.482V101.998H122.075V98.4053Z" fill="#AB1D1D"/>
<path d="M125.667 98.4048H122.074V101.997H125.667V98.4048Z" fill="#AB1D1D"/>
<path d="M129.26 98.4048H125.668V101.997H129.26V98.4048Z" fill="#AB1D1D"/>
<path d="M132.852 98.4048H129.26V101.997H132.852V98.4048Z" fill="#AB1D1D"/>
<path d="M143.63 98.4053H140.037V101.998H143.63V98.4053Z" fill="#AB1D1D"/>
<path d="M154.407 98.4048H150.814V101.997H154.407V98.4048Z" fill="#AB1D1D"/>
<path d="M157.999 98.4053H154.406V101.998H157.999V98.4053Z" fill="#AB1D1D"/>
<path d="M89.7409 101.998H86.1484V105.59H89.7409V101.998Z" fill="#AB1D1D"/>
<path d="M96.9284 101.997H93.3359V105.59H96.9284V101.997Z" fill="#AB1D1D"/>
<path d="M100.516 101.998H96.9238V105.59H100.516V101.998Z" fill="#AB1D1D"/>
<path d="M107.704 101.998H104.111V105.59H107.704V101.998Z" fill="#AB1D1D"/>
<path d="M114.889 101.997H111.297V105.59H114.889V101.997Z" fill="#AB1D1D"/>
<path d="M125.667 101.998H122.074V105.59H125.667V101.998Z" fill="#AB1D1D"/>
<path d="M129.26 101.998H125.668V105.59H129.26V101.998Z" fill="#AB1D1D"/>
<path d="M132.852 101.998H129.26V105.59H132.852V101.998Z" fill="#AB1D1D"/>
<path d="M136.446 101.998H132.854V105.59H136.446V101.998Z" fill="#AB1D1D"/>
<path d="M140.038 101.998H136.445V105.59H140.038V101.998Z" fill="#AB1D1D"/>
<path d="M143.63 101.998H140.037V105.59H143.63V101.998Z" fill="#AB1D1D"/>
<path d="M147.221 101.998H143.629V105.59H147.221V101.998Z" fill="#AB1D1D"/>
<path d="M86.1472 105.589H82.5547V109.182H86.1472V105.589Z" fill="#AB1D1D"/>
<path d="M89.7409 105.589H86.1484V109.182H89.7409V105.589Z" fill="#AB1D1D"/>
<path d="M93.3347 105.589H89.7422V109.182H93.3347V105.589Z" fill="#AB1D1D"/>
<path d="M100.516 105.589H96.9238V109.182H100.516V105.589Z" fill="#AB1D1D"/>
<path d="M107.704 105.589H104.111V109.182H107.704V105.589Z" fill="#AB1D1D"/>
<path d="M111.298 105.59H107.705V109.182H111.298V105.59Z" fill="#AB1D1D"/>
<path d="M122.075 105.59H118.482V109.182H122.075V105.59Z" fill="#AB1D1D"/>
<path d="M129.26 105.59H125.668V109.182H129.26V105.59Z" fill="#AB1D1D"/>
<path d="M143.63 105.59H140.037V109.182H143.63V105.59Z" fill="#AB1D1D"/>
<path d="M157.999 105.589H154.406V109.182H157.999V105.589Z" fill="#AB1D1D"/>
<path d="M75.1931 8.77246H57.5898V26.3757H75.1931V8.77246Z" fill="#AB1D1D"/>
<path d="M75.1937 5.00049H57.5905H53.8184V8.77261V26.3759V30.148H57.5905H75.1937H78.9658V26.3759V8.77261V5.00049H75.1937ZM75.1937 26.3759H57.5905V8.77261H75.1937V26.3759Z" fill="#AB1D1D"/>
<path d="M154.224 8.77246H136.621V26.3757H154.224V8.77246Z" fill="#AB1D1D"/>
<path d="M154.225 5.00049H136.622H132.85V8.77261V26.3759V30.148H136.622H154.225H157.997V26.3759V8.77261V5.00049H154.225ZM154.225 26.3759H136.622V8.77261H154.225V26.3759Z" fill="#AB1D1D"/>
<path d="M75.1931 87.8071H57.5898V105.41H75.1931V87.8071Z" fill="#AB1D1D"/>
<path d="M75.1937 84.0352H57.5905H53.8184V87.8073V105.411V109.183H57.5905H75.1937H78.9658V105.411V87.8073V84.0352H75.1937ZM75.1937 105.411H57.5905V87.8073H75.1937V105.411Z" fill="#AB1D1D"/>
<path d="M71.7794 12.1851H61.002V22.9626H71.7794V12.1851Z" fill="#AB1D1D"/>
<path d="M150.815 12.1851H140.037V22.9626H150.815V12.1851Z" fill="#AB1D1D"/>
<path d="M71.7794 91.2197H61.002V101.997H71.7794V91.2197Z" fill="#AB1D1D"/>
<path d="M0 131H26.3849V66H51" stroke="url(#paint0_linear_229_133)" stroke-width="2"/>
<path d="M158 66H185.42V0.999999H211" stroke="url(#paint1_linear_229_133)" stroke-width="2"/>
<defs>
<linearGradient id="paint0_linear_229_133" x1="3.38395e-08" y1="130.558" x2="50.571" y2="130.558" gradientUnits="userSpaceOnUse">
<stop stop-color="#E80F0F" stop-opacity="0"/>
<stop offset="0.544792" stop-color="#E80F0F"/>
<stop offset="1" stop-color="#E80F0F" stop-opacity="0"/>
</linearGradient>
<linearGradient id="paint1_linear_229_133" x1="158" y1="65.5578" x2="210.554" y2="65.5578" gradientUnits="userSpaceOnUse">
<stop stop-color="#E80F0F" stop-opacity="0"/>
<stop offset="0.544792" stop-color="#E80F0F"/>
<stop offset="1" stop-color="#E80F0F" stop-opacity="0"/>
</linearGradient>
</defs>
</svg>
