<svg width="366" height="302" viewBox="0 0 366 302" fill="none" xmlns="http://www.w3.org/2000/svg">
<path d="M60.5 227.43H122.463V162H180.271" stroke="url(#paint0_linear_224_132)" stroke-width="2"/>
<path d="M73.7477 261.959H73.7294C74.0965 261.959 74.4489 261.818 74.7133 261.563L90.8281 246.082C91.1072 245.814 91.2648 245.444 91.2648 245.057V244.77C91.2648 245.157 91.1072 245.526 90.8281 245.794L74.7133 261.277C74.4489 261.531 74.0965 261.673 73.7294 261.673H5.05414C2.73907 261.673 0.835981 259.908 0.615817 257.65C0.614203 257.6 0.613281 257.55 0.613281 257.5V213.38C0.613281 210.917 2.60928 208.92 5.07258 208.92H86.8231C88.9578 208.92 90.7419 210.42 91.1798 212.423C91.1928 212.482 91.2046 212.541 91.2152 212.6C91.2595 212.854 91.2831 213.114 91.2831 213.38V219.435V245.057C91.2831 245.444 91.1255 245.814 90.8464 246.081L74.7316 261.563C74.4666 261.818 74.1148 261.959 73.7477 261.959ZM5.48617 209.514C3.06621 209.514 1.10433 211.468 1.10433 213.879V257.075C1.10433 259.486 3.06621 261.441 5.48617 261.441H73.5347C73.8563 261.441 74.1668 261.317 74.3987 261.094L76.8993 258.7L74.4436 260.884C74.2146 261.088 73.9183 261.2 73.612 261.2L6.21374 261.145C3.79448 261.145 1.66891 259.559 1.66891 257.182L1.57578 213.902C1.59422 211.273 3.79448 209.514 6.21374 209.514H5.48617ZM12.1697 219.357C10.9901 220.38 10.2684 221.743 10.2684 223.239V224.845V225.29V232.188V232.634V239.751V240.195V246.379V246.824V248.43C10.2684 251.594 13.4967 254.169 17.4643 254.169H34.2059H34.6504H36.5553H36.9998H53.7415C56.0455 254.169 58.0998 253.301 59.4178 251.953C60.5962 250.931 61.3174 249.568 61.3174 248.072V246.467V246.022V239.838V239.393V235.477V232.276V231.832V224.932V224.488V222.881C61.3174 219.717 58.0892 217.143 54.1219 217.143H37.3802H36.9353H35.0305H34.5861H17.8446C15.5418 217.143 13.4877 218.011 12.1697 219.357ZM15.4233 253.477C12.9729 252.866 11.1247 251.186 10.7736 249.139C11.2503 251.153 13.0506 252.798 15.4233 253.477Z" fill="url(#paint1_linear_224_132)"/>
<path d="M44.4342 224.488L44.4298 224.478L44.3673 224.327L44.3604 224.31L44.321 224.216L44.2749 224.106C44.2205 223.987 44.1594 223.87 44.0875 223.734L44.0448 223.652L43.9717 223.514C43.8622 223.321 43.7423 223.132 43.6148 222.95L43.5342 222.842C43.4253 222.693 43.3128 222.545 43.1918 222.4L43.0726 222.266C42.9567 222.135 42.8389 222.006 42.7135 221.882L42.5876 221.76C42.4792 221.657 42.3655 221.557 42.2512 221.458L42.2245 221.435L42.1788 221.394L42.0636 221.298C41.963 221.218 41.8483 221.135 41.7371 221.052L41.6276 220.971L41.5538 220.915L41.5008 220.879L41.3512 220.79C41.1439 220.654 40.9302 220.526 40.7092 220.406C40.6326 220.364 40.5577 220.32 40.4795 220.281C40.1971 220.138 39.9057 220.006 39.6037 219.89C39.5419 219.867 39.4785 219.847 39.4165 219.825C39.1625 219.733 38.9024 219.652 38.6364 219.582C38.549 219.558 38.4621 219.535 38.3738 219.514C38.0494 219.436 37.72 219.369 37.3818 219.325V217.587H54.1235C57.846 217.587 60.8746 219.963 60.8746 222.881V224.488H44.4342ZM60.8746 231.832H43.0429C43.1489 231.663 43.2469 231.49 43.3707 231.331C44.3763 230.045 44.9081 228.539 44.9081 226.978V226.975V226.975L44.9075 226.967C44.9075 226.663 44.8791 226.363 44.8392 226.067C44.8275 225.979 44.8132 225.892 44.7977 225.804C44.7544 225.559 44.6986 225.316 44.6299 225.079L44.596 224.932H60.8746V231.832ZM60.8746 239.393H43.0231C42.4289 238.447 42.1157 237.346 42.1157 236.197V235.022C42.1157 234.716 42.1442 234.415 42.1878 234.119C42.1989 234.041 42.2141 233.964 42.2284 233.886C42.2717 233.653 42.3296 233.422 42.4008 233.197C42.4207 233.133 42.4365 233.068 42.4594 233.004C42.547 232.754 42.6556 232.512 42.7768 232.276H60.8746V239.393ZM60.8746 246.022H44.2045H44.2039L44.155 246.178C43.3681 248.663 41.1596 250.568 38.366 251.259C37.9662 251.358 37.5554 251.432 37.1344 251.479L36.9369 251.5V253.366H35.0321V251.488V251.487L34.9936 251.482L34.6792 251.436L34.5252 251.41L34.4553 251.399C34.2907 251.371 34.1259 251.343 33.9664 251.308L33.9585 251.306C33.902 251.294 33.8486 251.278 33.7925 251.264C33.1021 251.098 32.4475 250.856 31.8399 250.551L31.7186 250.487C31.4802 250.362 31.2508 250.226 31.0282 250.083C30.9641 250.041 30.8986 250.002 30.8368 249.959C30.6024 249.798 30.3776 249.627 30.1641 249.447C30.0799 249.374 30.0016 249.298 29.9209 249.223C29.7936 249.106 29.6708 248.985 29.5525 248.86C29.4594 248.762 29.3655 248.663 29.2786 248.561C29.1601 248.422 29.0506 248.278 28.9432 248.132C28.8288 247.976 28.7228 247.816 28.622 247.653C28.545 247.528 28.4692 247.401 28.4002 247.27C28.3383 247.154 28.279 247.037 28.2239 246.917C28.1303 246.713 28.0448 246.503 27.9723 246.29L27.9366 246.177C27.8391 245.872 27.7693 245.567 27.7174 245.262L27.6987 245.145C27.6526 244.841 27.6256 244.538 27.6256 244.237C27.6266 242.773 28.1289 241.36 29.0789 240.151L29.1513 240.04C29.2016 239.973 29.2498 239.906 29.2968 239.838H29.3083L29.3745 239.739L29.4088 239.677L29.5986 239.393H29.5772C29.6362 239.292 29.6901 239.188 29.7431 239.084C29.8263 238.918 29.8976 238.747 29.9665 238.576C30.0216 238.436 30.0799 238.3 30.1256 238.158C30.1874 237.963 30.231 237.763 30.2743 237.564C30.3012 237.437 30.3377 237.314 30.3577 237.185C30.4089 236.853 30.4391 236.515 30.4391 236.171V236.17V235.05C30.4391 234.727 30.4089 234.408 30.3619 234.091C30.346 233.979 30.3211 233.869 30.2994 233.757C30.2577 233.552 30.2076 233.351 30.1477 233.152C30.1125 233.035 30.0786 232.92 30.0368 232.806C29.9705 232.625 29.8914 232.451 29.8086 232.276H29.8377L29.668 231.966L29.6652 231.96L29.6576 231.947L29.6417 231.923L29.5917 231.832H29.5818C29.4282 231.564 29.2643 231.303 29.0789 231.066C28.128 229.855 27.6256 228.442 27.625 226.975L27.6256 226.97C27.6256 226.644 27.6609 226.322 27.7102 226.002C27.7222 225.925 27.7326 225.848 27.7469 225.773C27.8029 225.485 27.8806 225.202 27.9758 224.921C28.5003 223.395 29.591 222.066 31.0455 221.126C31.1934 221.031 31.3426 220.938 31.4966 220.852C31.6181 220.784 31.7408 220.717 31.8666 220.654C32.0934 220.541 32.3243 220.436 32.5622 220.342C32.6751 220.297 32.7916 220.258 32.9077 220.217C33.1203 220.142 33.3358 220.074 33.5541 220.015C33.6726 219.984 33.7911 219.953 33.912 219.925C34.157 219.87 34.4051 219.824 34.6559 219.788C34.7168 219.779 34.7758 219.765 34.8378 219.758L35.0321 219.733V219.73V217.587H36.9369V219.72V219.72L37.1344 219.742L37.1801 219.749C37.4968 219.786 37.809 219.843 38.117 219.911C38.206 219.93 38.294 219.952 38.3823 219.974C38.6675 220.046 38.9494 220.128 39.2243 220.226L39.331 220.26C39.633 220.372 39.9251 220.503 40.2109 220.645C40.2882 220.682 40.3631 220.724 40.439 220.763C40.6852 220.894 40.9247 221.036 41.155 221.189C42.3771 222.003 43.3336 223.095 43.8959 224.35L43.9256 224.421C43.9918 224.575 44.0503 224.73 44.1047 224.887C44.2055 225.181 44.2859 225.478 44.3431 225.779C44.3569 225.85 44.3664 225.921 44.3777 225.992C44.4277 226.316 44.463 226.641 44.463 226.97L44.4637 226.975C44.463 228.436 43.9641 229.845 43.021 231.053C42.8315 231.296 42.6659 231.56 42.5117 231.832H42.5021L42.4538 231.921L42.4361 231.948L42.2593 232.276H42.2869C42.2028 232.453 42.1238 232.632 42.0575 232.816C42.026 232.904 41.9997 232.995 41.972 233.085C41.901 233.313 41.8432 233.544 41.7987 233.78C41.7814 233.869 41.7624 233.957 41.7491 234.047C41.7021 234.366 41.6703 234.69 41.6703 235.022V236.197V236.199C41.6703 237.473 42.032 238.699 42.7165 239.738L42.7824 239.838H60.8746V246.022ZM60.8746 248.072C60.8746 250.992 57.846 253.366 54.1235 253.366H37.3818V251.897C37.8048 251.84 38.2188 251.759 38.6214 251.652C41.436 250.908 43.6685 248.981 44.5278 246.467H60.8746V248.072ZM34.5877 253.366H17.8462C14.1232 253.366 11.0949 250.992 11.0949 248.072V246.467H27.5546C27.58 246.54 27.618 246.608 27.6457 246.681C27.7077 246.841 27.7736 246.998 27.8474 247.154C27.9048 247.277 27.9613 247.4 28.0259 247.52C28.1425 247.735 28.2686 247.947 28.4062 248.151C28.4885 248.271 28.5792 248.387 28.6681 248.503C28.7594 248.623 28.8521 248.739 28.9501 248.855C29.0423 248.962 29.1341 249.069 29.2325 249.172C29.4144 249.364 29.6046 249.55 29.8065 249.725C29.8713 249.782 29.9402 249.832 30.0062 249.886C30.1924 250.039 30.3861 250.184 30.5871 250.322C30.6581 250.371 30.7285 250.418 30.8006 250.465C31.3534 250.823 31.9549 251.124 32.5963 251.364L32.6834 251.394C33.2877 251.612 33.9221 251.781 34.5877 251.877V253.366ZM11.0949 239.838H28.7516L28.7288 239.867C27.7158 241.157 27.1807 242.668 27.1807 244.233V244.238V244.242C27.1807 244.526 27.2046 244.806 27.2397 245.084L27.2577 245.201C27.2962 245.464 27.3501 245.725 27.4184 245.981L27.4274 246.022H11.0949V239.838ZM11.0949 232.276H29.3201C29.4441 232.515 29.5543 232.762 29.6444 233.015C29.6693 233.086 29.6881 233.159 29.7099 233.231C29.7789 233.45 29.8362 233.675 29.8789 233.904C29.8941 233.984 29.91 234.063 29.9225 234.144C29.9656 234.442 29.9947 234.743 29.9947 235.05V236.17C29.9947 236.487 29.9656 236.798 29.9195 237.104C29.9022 237.217 29.872 237.326 29.8485 237.438C29.8086 237.628 29.766 237.815 29.7085 237.998C29.6686 238.125 29.6198 238.248 29.5716 238.371C29.5082 238.534 29.4386 238.696 29.3607 238.852C29.3007 238.972 29.2373 239.091 29.1691 239.207C29.1313 239.271 29.0863 239.331 29.0466 239.393H11.0949V232.276ZM11.0949 224.932H27.4933C27.4735 224.995 27.4666 225.061 27.4493 225.125C27.3859 225.345 27.3333 225.569 27.2928 225.795C27.2764 225.889 27.2612 225.983 27.2487 226.077C27.2088 226.37 27.1819 226.666 27.1814 226.967L27.1807 226.975V226.975V226.978C27.1807 228.545 27.7158 230.055 28.7288 231.344C28.85 231.498 28.9453 231.669 29.0501 231.832H11.0949V224.932ZM11.0949 222.881C11.0949 219.963 14.1232 217.587 17.8462 217.587H34.5877V219.339C34.5201 219.349 34.4563 219.368 34.3894 219.379C34.1406 219.421 33.8951 219.47 33.6547 219.529C33.5334 219.559 33.4135 219.593 33.2936 219.627C33.0719 219.691 32.8554 219.762 32.6419 219.84C32.5511 219.874 32.4579 219.903 32.3676 219.939C32.0852 220.053 31.8122 220.181 31.5462 220.318C31.4401 220.374 31.3366 220.434 31.2322 220.493C31.0632 220.59 30.8986 220.691 30.7382 220.797C30.6526 220.852 30.5618 220.898 30.4783 220.956C30.2994 221.083 30.126 221.216 29.9631 221.35L29.8884 221.411C29.7323 221.544 29.5806 221.682 29.4042 221.854L29.3579 221.898C29.2127 222.045 29.0734 222.197 28.9404 222.352L28.8837 222.416C28.5891 222.769 28.3279 223.145 28.1074 223.532C28.0777 223.582 28.051 223.636 28.0238 223.69L27.9772 223.782C27.9179 223.895 27.8599 224.007 27.8075 224.121C27.7732 224.196 27.743 224.273 27.7128 224.35L27.6554 224.488H11.0949V222.881ZM54.1235 217.143H37.3818H36.9369H35.0321H34.5877H17.8462C13.8787 217.143 10.6504 219.717 10.6504 222.881V224.488V224.932V231.832V232.276V239.393V239.838V246.022V246.467V248.072C10.6504 251.237 13.8787 253.811 17.8462 253.811H34.5877H35.0321H36.9369H37.3818H54.1235C58.0908 253.811 61.319 251.237 61.319 248.072V246.467V246.022V239.838V239.393V232.276V231.832V224.932V224.488V222.881C61.319 219.717 58.0908 217.143 54.1235 217.143Z" fill="#E80F0F"/>
<path d="M14.288 246.508V246.449H14.229V246.331H14.17V246.272H14.111V246.213H14.0519V246.095H13.9929V246.036H13.9339V245.977H26.0916V246.036H26.0325V246.095H25.9145V246.154H25.8555V246.213H25.7375V246.272H25.6194V246.331H25.5014V246.39H25.3834V246.449H25.2653V246.508H14.288ZM27.2719 245.387V245.328H27.2129V244.856H27.1539V243.617H27.2129V243.085H27.2719V242.849H27.3309V242.613H27.39V242.377H27.449V242.2H27.508V241.964H27.567V241.787H27.626V241.669H27.685V241.551H27.7441V241.433H27.8031V241.256H27.8621V241.138H27.9211V241.02H27.9801V240.902H28.0392V240.784H28.0982V240.666H28.1572V240.607H28.2162V240.489H28.2752V240.43H28.3342V240.312H28.3933V240.194H28.4523V240.135H28.5113V240.017H28.5703V239.958H28.6293V239.898H28.6883V239.839H11.1601V239.721H11.101V239.485H11.042V239.249H10.983V238.895H10.924V238.541H10.865V238.187H10.806V237.774H10.7469V237.243H10.6879V236.534H10.6289V234.41H10.6879V233.643H10.7469V233.17H10.806V232.757H10.865V232.403H10.924V231.99H10.983V231.695H11.042V231.459H11.101V231.813H28.9834V231.754H28.9244V231.636H28.8654V231.577H28.8064V231.459H28.7474V231.4H28.6883V231.341H28.6293V231.223H28.5703V231.164H28.5113V231.105H28.4523V230.987H28.3933V230.928H28.3342V230.81H28.2752V230.751H28.2162V230.633H28.1572V230.515H28.0982V230.397H28.0392V230.338H27.9801V230.22H27.9211V230.102H27.8621V229.984H27.8031V229.865H27.7441V229.688H27.685V229.57H27.626V229.393H27.567V229.275H27.508V229.098H27.449V228.921H27.39V228.685H27.3309V228.449H27.2719V228.036H27.2129V227.623H27.1539V226.442H27.2129V225.911H27.2719V225.616H27.3309V225.321H27.39V225.085H27.449V224.967H21.3701V224.908H21.4292V224.849H21.5472V224.79H21.6062V224.731H21.7242V224.672H21.8423V224.613H21.9603V224.554H22.0784V224.495H22.1374V224.436H27.626V224.377H27.685V224.259H27.7441V224.082H27.8031V223.964H27.8621V223.846H27.9211V223.728H27.9801V223.61H28.0392V223.492H28.0982V223.433H28.1572V223.314H28.2162V223.255H28.2752V223.137H28.3342V223.078H28.3933V222.96H28.4523V222.901H28.5113V222.842H28.5703V222.724H28.6293V222.665H28.6883V222.547H28.7474V222.488H28.8064V222.429H28.8654V222.311H28.9244V222.252H28.9834V222.193H29.0425V222.134H29.1015V222.075H29.1605V222.016H29.2195V221.957H29.2785V221.898H29.3375V221.839H29.3966V221.78H29.4556V221.721H29.5146V221.662H29.5736V221.603H29.6326V221.544H29.6917V221.485H29.7507V221.426H29.8687V221.367H29.9277V221.308H29.9867V221.249H30.0458V221.19H30.1048V221.131H30.2228V221.072H30.2818V221.013H30.3999V220.954H30.4589V220.895H30.5179V220.836H30.6359V220.777H30.754V220.718H30.813V220.659H30.931V220.6H31.0491V220.541H31.1081V220.482H31.2261V220.423H31.3441V220.364H31.4622V220.305H31.5212V220.246H31.6392V220.187H31.8163V220.128H31.9343V220.069H32.0524V220.01H32.1704V219.95H32.2884V219.891H32.4655V219.832H32.6425V219.773H32.8196V219.714H32.9966V219.655H33.1737V219.596H33.3508V219.537H33.5868V219.478H33.8819V219.419H34.118V219.36H34.4721V219.301H34.5311V217.649H34.5901V217.59H34.6491V217.531H34.7672V217.472H34.8852V217.413H35.0033V217.354H35.1213V217.295H35.2393V217.236H35.2983V217.177H35.4164V217.118H43.974V217.177H44.8002V217.236H45.2723V217.295H45.6265V217.354H46.0396V217.413H46.3937V217.472H46.7478V217.531H46.9839V217.59H37.423V219.301H37.6V219.36H37.9541V219.419H38.2492V219.478H38.4853V219.537H38.7214V219.596H38.8984V219.655H39.0755V219.714H39.3116V219.773H39.4886V219.832H39.6066V219.891H39.7837V219.95H39.9017V220.01H40.0198V220.069H40.1968V220.128H40.3149V220.187H40.4329V220.246H40.5509V220.305H40.669V220.364H40.787V220.423H40.846V220.482H40.964V220.541H41.0821V220.6H41.1411V220.659H41.2591V220.718H41.3772V220.777H41.4362V220.836H41.5542V220.895H41.6132V220.954H41.7313V221.013H41.7903V221.072H41.8493V221.131H41.9674V221.19H42.0264V221.249H42.0854V221.308H42.2034V221.367H42.2624V221.426H42.3215V221.485H42.3805V221.544H42.4395V221.603H42.4985V221.662H42.5575V221.721H42.6165V221.78H42.6756V221.839H42.7346V221.898H42.7936V221.957H42.8526V222.016H42.9116V222.075H42.9707V222.134H43.0297V222.193H43.0887V222.252H43.1477V222.311H43.2067V222.37H43.2657V222.488H43.3248V222.547H43.3838V222.606H43.4428V222.665H43.5018V222.783H43.5608V222.842H43.6198V222.901H43.6789V223.019H43.7379V223.137H43.7969V223.196H43.8559V223.314H43.9149V223.374H43.974V223.492H44.033V223.61H44.092V223.728H44.151V223.846H44.21V223.964H44.269V224.082H44.3281V224.2H44.3871V224.318H44.4461V224.436H57.6661V224.495H57.7251V224.554H57.7841V224.672H57.8431V224.731H57.9022V224.79H57.9612V224.908H58.0202V224.967H44.6231V225.026H44.6822V225.262H44.7412V225.498H44.8002V225.793H44.8592V226.206H44.9182V227.741H44.8592V228.213H44.8002V228.449H44.7412V228.626H44.6822V228.862H44.6231V229.098H44.5641V229.334H44.5051V229.452H44.4461V229.57H44.3871V229.688H44.3281V229.865H44.269V229.984H44.21V230.102H44.151V230.22H44.092V230.338H44.033V230.456H43.974V230.574H43.9149V230.633H43.8559V230.751H43.7969V230.81H43.7379V230.928H43.6789V231.046H43.6198V231.105H43.5608V231.164H43.5018V231.282H43.4428V231.341H43.3838V231.4H43.3248V231.518H43.2657V231.577H43.2067V231.695H43.1477V231.813H51.7643V231.872H51.6463V231.931H51.5872V231.99H51.4692V232.049H51.3512V232.108H51.2331V232.167H51.1741V232.226H51.0561V232.285H42.7936V232.403H42.7346V232.521H42.6756V232.639H42.6165V232.757H42.5575V232.934H42.4985V233.111H42.4395V233.289H42.3805V233.525H42.3215V233.761H42.2624V234.056H42.2034V234.528H42.1444V236.712H42.2034V237.302H42.0854V237.361H41.9674V237.42H41.8493V237.479H41.7313V237.066H41.6723V236.534H41.6132V234.705H41.6723V234.174H41.7313V233.82H41.7903V233.525H41.8493V233.289H41.9083V233.052H41.9674V232.875H42.0264V232.698H42.0854V232.58H42.1444V232.462H42.2034V232.226H42.2624V232.108H42.3215V232.049H42.3805V231.931H42.4395V231.813H42.4985V231.695H42.5575V231.636H42.6165V231.518H42.6756V231.459H42.7346V231.341H42.7936V231.282H42.8526V231.164H42.9116V231.105H42.9707V230.987H43.0297V230.928H43.0887V230.869H43.1477V230.81H43.2067V230.692H43.2657V230.574H43.3248V230.515H43.3838V230.397H43.4428V230.338H43.5018V230.22H43.5608V230.102H43.6198V229.984H43.6789V229.865H43.7379V229.747H43.7969V229.629H43.8559V229.452H43.9149V229.334H43.974V229.216H44.033V229.098H44.092V228.862H44.151V228.626H44.21V228.39H44.269V228.213H44.3281V227.859H44.3871V227.387H44.4461V226.619H44.3871V226.088H44.3281V225.734H44.269V225.498H44.21V225.262H44.151V225.085H44.092V224.908H44.033V224.731H43.974V224.554H43.9149V224.436H43.8559V224.318H43.7969V224.141H43.7379V224.082H43.6789V223.964H43.6198V223.846H43.5608V223.728H43.5018V223.669H43.4428V223.551H43.3838V223.433H43.3248V223.374H43.2657V223.314H43.2067V223.196H43.1477V223.137H43.0887V223.078H43.0297V222.96H42.9707V222.901H42.9116V222.842H42.8526V222.724H42.7936V222.665H42.7346V222.606H42.6756V222.547H42.6165V222.488H42.5575V222.429H42.4985V222.37H42.4395V222.311H42.3805V222.252H42.3215V222.193H42.2624V222.134H42.2034V222.075H42.1444V222.016H42.0854V221.957H42.0264V221.898H41.9674V221.839H41.9083V221.78H41.8493V221.721H41.7313V221.662H41.6723V221.603H41.6132V221.544H41.5542V221.485H41.4362V221.426H41.3772V221.367H41.3182V221.308H41.2001V221.249H41.1411V221.19H41.0231V221.131H40.905V221.072H40.846V221.013H40.728V220.954H40.6099V220.895H40.5509V220.836H40.4329V220.777H40.3149V220.718H40.1968V220.659H40.0788V220.6H39.9607V220.541H39.8427V220.482H39.6657V220.423H39.5476V220.364H39.4296V220.305H39.2525V220.246H39.0755V220.187H38.8984V220.128H38.6624V220.069H38.4853V220.01H38.2492V219.95H38.0132V219.891H37.6591V219.832H37.3049V219.773H36.8918V217.59H35.0623V219.773H34.7672V219.832H34.4131V219.891H34.118V219.95H33.8229V220.01H33.5868V220.069H33.4098V220.128H33.2327V220.187H33.0557V220.246H32.8786V220.305H32.7016V220.364H32.5245V220.423H32.4065V220.482H32.2884V220.541H32.1704V220.6H31.9933V220.659H31.8753V220.718H31.7573V220.777H31.6392V220.836H31.5802V220.895H31.4622V220.954H31.3441V221.013H31.2851V221.072H31.1671V221.131H31.0491V221.19H30.99V221.249H30.872V221.308H30.813V221.367H30.754V221.426H30.6359V221.485H30.5769V221.544H30.5179V221.603H30.3999V221.662H30.3408V221.721H30.2818V221.78H30.2228V221.839H30.1638V221.898H30.0458V221.957H29.9867V222.016H29.9277V222.075H29.8687V222.134H29.8097V222.193H29.7507V222.252H29.6917V222.311H29.6326V222.37H29.5736V222.429H29.5146V222.488H29.4556V222.547H29.3966V222.606H29.3375V222.724H29.2785V222.783H29.2195V222.842H29.1605V222.901H29.1015V223.019H29.0425V223.078H28.9834V223.137H28.9244V223.255H28.8654V223.314H28.8064V223.433H28.7474V223.492H28.6883V223.61H28.6293V223.669H28.5703V223.787H28.5113V223.905H28.4523V224.023H28.3933V224.141H28.3342V224.2H28.2752V224.377H28.2162V224.495H28.1572V224.613H28.0982V224.79H28.0392V224.908H27.9801V225.144H27.9211V225.38H27.8621V225.557H27.8031V225.793H27.7441V226.206H27.685V226.797H27.626V227.21H27.685V227.741H27.7441V228.154H27.8031V228.331H27.8621V228.567H27.9211V228.803H27.9801V229.039H28.0392V229.157H28.0982V229.334H28.1572V229.452H28.2162V229.57H28.2752V229.688H28.3342V229.865H28.3933V229.984H28.4523V230.102H28.5113V230.22H28.5703V230.279H28.6293V230.397H28.6883V230.456H28.7474V230.574H28.8064V230.633H28.8654V230.751H28.9244V230.869H28.9834V230.928H29.0425V230.987H29.1015V231.046H29.1605V231.164H29.2195V231.223H29.2785V231.341H29.3375V231.4H29.3966V231.518H29.4556V231.577H29.5146V231.695H29.5736V231.813H29.6326V231.872H29.6917V231.99H29.7507V232.108H29.8097V232.167H29.8687V232.403H29.9277V232.521H29.9867V232.639H30.0458V232.816H30.1048V232.993H30.1638V233.17H30.2228V233.407H30.2818V233.643H30.3408V233.938H30.3999V234.41H30.4589V236.83H30.3999V237.302H30.3408V237.538H30.2818V237.833H30.2228V238.069H30.1638V238.246H30.1048V238.423H30.0458V238.541H29.9867V238.718H29.9277V238.836H29.8687V238.954H29.8097V239.072H29.7507V239.19H29.6917V239.308H29.6326V239.485H29.5736V239.544H29.5146V239.662H29.4556V239.721H29.3966V239.839H29.3375V239.898H29.2785V239.958H29.2195V240.076H29.1605V240.135H29.1015V240.253H29.0425V240.312H28.9834V240.371H28.9244V240.489H28.8654V240.548H28.8064V240.666H28.7474V240.725H28.6883V240.843H28.6293V240.961H28.5703V241.02H28.5113V241.138H28.4523V241.256H28.3933V241.374H28.3342V241.492H28.2752V241.669H28.2162V241.787H28.1572V241.905H28.0982V242.023H28.0392V242.2H27.9801V242.436H27.9211V242.613H27.8621V242.849H27.8031V243.085H27.7441V243.499H27.685V243.971H27.626V244.443H27.685V245.033H27.7441V245.151H27.685V245.21H27.626V245.269H27.508V245.328H27.39V245.387H27.2719ZM11.101 239.308V239.367H29.0425V239.308H29.1015V239.19H29.1605V239.072H29.2195V238.954H29.2785V238.895H29.3375V238.718H29.3966V238.6H29.4556V238.482H29.5146V238.364H29.5736V238.187H29.6326V238.01H29.6917V237.833H29.7507V237.597H29.8097V237.302H29.8687V237.007H29.9277V236.416H29.9867V234.764H29.9277V234.233H29.8687V233.879H29.8097V233.643H29.7507V233.407H29.6917V233.229H29.6326V232.993H29.5736V232.875H29.5146V232.757H29.4556V232.58H29.3966V232.462H29.3375V232.344H29.2785V232.285H11.101V239.308Z" fill="#E80F0F"/>
<path d="M27.861 253.827V253.768H27.0348V253.709H26.6217V253.65H26.2676V253.591H25.8544V253.532H25.5003V253.473H25.1462V253.414H24.9102V253.355H34.5301V251.879H34.235V251.82H33.9989V251.761H33.7038V251.702H33.4677V251.643H33.2317V251.584H33.0546V251.525H32.8776V251.466H32.7005V251.407H32.5235V251.348H32.3464V251.289H32.2284V251.23H32.1103V251.171H31.9923V251.112H31.8152V251.053H31.6972V250.994H31.5792V250.935H31.4611V250.876H31.4021V250.817H31.2841V250.758H31.166V250.699H31.048V250.64H30.93V250.581H30.871V250.522H30.7529V250.463H30.6939V250.404H30.5759V250.345H30.5168V250.286H30.3988V250.227H30.3398V250.168H30.2808V250.109H30.1627V249.991H30.2218V249.932H30.2808V249.873H30.3988V249.814H30.5168V249.754H30.6349V249.814H30.7529V249.873H30.8119V249.932H30.93V249.991H30.989V250.05H31.107V250.109H31.166V250.168H31.2841V250.227H31.4021V250.286H31.4611V250.345H31.5792V250.404H31.6972V250.463H31.8152V250.522H31.9333V250.581H32.0513V250.64H32.1693V250.699H32.3464V250.758H32.4644V250.817H32.6415V250.876H32.7595V250.935H32.9366V250.994H33.1136V251.053H33.2907V251.112H33.4677V251.171H33.7038V251.23H33.9399V251.289H34.1759V251.348H34.5301V251.407H34.8842V251.466H35.0612V253.355H36.8908V251.466H37.1859V251.407H37.54V251.348H37.8941V251.289H38.1892V251.23H38.4842V251.171H38.6613V251.112H38.8384V251.053H39.0154V250.994H39.1925V250.935H39.3695V250.876H39.4875V250.817H39.6646V250.758H39.7826V250.699H39.9007V250.64H40.0187V250.581H40.1958V250.522H40.3138V250.463H40.4318V250.404H40.4909V250.345H40.6089V250.286H40.7269V250.227H40.7859V250.168H40.904V250.109H41.022V250.05H41.081V249.991H41.1991V249.932H41.2581V249.873H41.3761V249.814H41.4351V249.754H41.5532V249.695H41.6122V249.636H41.6712V249.577H41.7892V249.518H41.8483V249.459H41.9073V249.4H41.9663V249.341H42.0253V249.282H42.0843V249.223H42.2024V249.105H42.2614V249.046H42.3204V248.987H42.3794V248.928H42.4384V248.869H42.4975V248.81H42.5565V248.751H42.6155V248.692H42.6745V248.633H42.7335V248.574H42.7925V248.515H42.8516V248.397H42.9106V248.338H42.9696V248.279H43.0286V248.161H43.0876V248.102H43.1467V248.043H43.2057V247.984H43.2647V247.866H43.3237V247.748H43.3827V247.689H43.4417V247.571H43.5008V247.453H43.5598V247.394H43.6188V247.276H43.6778V247.158H43.7368V247.04H43.7958V246.922H43.8549V246.804H43.9139V246.627H43.9729V246.509H44.0319V246.331H44.0909V246.154H44.15V245.977H58.0191V246.036H57.9601V246.154H57.9011V246.213H57.8421V246.272H57.7831V246.39H57.724V246.449H57.665V246.509H44.5631V246.568H44.5041V246.745H44.445V246.863H44.386V247.04H44.327V247.158H44.268V247.276H44.209V247.394H44.15V247.512H44.0909V247.63H44.0319V247.689H43.9729V247.807H43.9139V247.925H43.8549V247.984H43.7958V248.102H43.7368V248.161H43.6778V248.279H43.6188V248.397H43.5598V248.456H43.5008V248.515H43.4417V248.574H43.3827V248.692H43.3237V248.751H43.2647V248.81H43.2057V248.869H43.1467V248.987H43.0876V249.046H43.0286V249.105H42.9696V249.164H42.9106V249.223H42.8516V249.282H42.7925V249.341H42.7335V249.4H42.6745V249.459H42.6155V249.518H42.5565V249.577H42.4975V249.636H42.4384V249.695H42.3794V249.754H42.3204V249.814H42.2614V249.873H42.1433V249.932H42.0843V249.991H42.0253V250.05H41.9073V250.109H41.8483V250.168H41.7892V250.227H41.6712V250.286H41.6122V250.345H41.5532V250.404H41.4351V250.463H41.3171V250.522H41.2581V250.581H41.14V250.64H41.022V250.699H40.963V250.758H40.845V250.817H40.7269V250.876H40.6679V250.935H40.4909V250.994H40.3728V251.053H40.2548V251.112H40.1367V251.171H40.0187V251.23H39.9007V251.289H39.7236V251.348H39.6056V251.407H39.4285V251.466H39.2515V251.525H39.0744V251.584H38.8974V251.643H38.6613V251.702H38.4252V251.761H38.1301V251.82H37.8351V251.879H37.54V251.938H37.4219V253.355H46.0975V253.414H45.9795V253.473H45.9205V253.532H45.8025V253.591H45.6844V253.65H45.3303V253.709H44.9172V253.768H44.15V253.827H27.861ZM48.2812 239.84V239.78H48.3992V239.721H48.5173V239.662H48.6353V239.603H48.7533V239.544H48.8124V239.485H48.9304V239.426H49.0484V239.367H60.852V233.052H60.911V232.993H61.029V232.934H61.1471V233.052H61.2061V233.525H61.2651V234.233H61.3241V236.712H61.2651V237.479H61.2061V237.892H61.1471V238.246H61.0881V238.659H61.029V239.013H60.97V239.308H60.911V239.544H60.852V239.78H60.793V239.84" fill="#E80F0F"/>
<path d="M70.4151 240.334V240.53H68.4822V240.334H69.3427V237.295C69.3427 237.234 69.3463 237.171 69.3516 237.105L68.5253 237.837L68.4516 237.861L68.3931 237.83L68.3164 237.724L69.3982 236.768H69.5971V240.334H70.4151Z" fill="white"/>
<path d="M73.4775 240.292L73.5436 240.317L73.5678 240.381V240.53H71.1504V240.44L71.1657 240.38L71.2035 240.328L72.4812 239.035C72.5875 238.927 72.686 238.823 72.7757 238.722C72.8654 238.621 72.9439 238.52 73.0095 238.418C73.0761 238.315 73.1275 238.21 73.1647 238.102C73.2013 237.995 73.2201 237.88 73.2201 237.758C73.2201 237.621 73.1977 237.501 73.1517 237.4C73.1051 237.298 73.0443 237.215 72.9693 237.149C72.8932 237.083 72.8047 237.035 72.7043 237.004C72.6034 236.972 72.4995 236.956 72.3921 236.956C72.2741 236.956 72.1649 236.974 72.0646 237.011C71.9654 237.047 71.8769 237.096 71.8002 237.162C71.7235 237.226 71.6603 237.303 71.609 237.392C71.5588 237.481 71.5246 237.578 71.5057 237.684L71.4561 237.761L71.3729 237.773L71.2425 237.753C71.2661 237.593 71.3103 237.449 71.3747 237.324C71.4408 237.199 71.5228 237.093 71.6243 237.007C71.7246 236.92 71.8409 236.854 71.9737 236.809C72.1059 236.765 72.2487 236.741 72.4022 236.741C72.5456 236.741 72.6813 236.762 72.8117 236.804C72.941 236.846 73.0561 236.909 73.1552 236.991C73.2544 237.076 73.334 237.181 73.3925 237.306C73.4509 237.433 73.4798 237.581 73.4798 237.75C73.4798 237.892 73.458 238.023 73.4149 238.143C73.3718 238.264 73.3128 238.38 73.2396 238.492C73.1647 238.602 73.0779 238.711 72.9805 238.815C72.8826 238.921 72.7799 239.027 72.6725 239.138L71.5004 240.334C71.5558 240.32 71.6155 240.309 71.6757 240.302C71.737 240.295 71.7984 240.292 71.8604 240.292H73.4775Z" fill="white"/>
<path d="M74.3292 237.753C74.3516 237.593 74.3959 237.449 74.4614 237.324C74.5269 237.199 74.6101 237.093 74.7099 237.007C74.8108 236.92 74.927 236.854 75.0598 236.809C75.192 236.765 75.3349 236.741 75.4883 236.741C75.6311 236.741 75.7663 236.761 75.8938 236.801C76.0206 236.84 76.1322 236.9 76.2284 236.98C76.3246 237.059 76.4001 237.158 76.4562 237.277C76.5117 237.395 76.5394 237.532 76.5394 237.686C76.5394 237.808 76.5205 237.918 76.4833 238.016C76.4468 238.114 76.3954 238.2 76.3287 238.274C76.2632 238.349 76.1847 238.411 76.095 238.46C76.0047 238.51 75.9067 238.551 75.8011 238.576C76.0761 238.627 76.2839 238.733 76.4243 238.895C76.5642 239.056 76.6344 239.258 76.6344 239.5C76.6344 239.654 76.6043 239.796 76.5424 239.929C76.4804 240.059 76.3954 240.172 76.2874 240.267C76.18 240.363 76.0531 240.438 75.9067 240.492C75.7598 240.546 75.601 240.572 75.4299 240.572C75.2168 240.572 75.0386 240.543 74.8969 240.486C74.7547 240.429 74.6379 240.354 74.5458 240.262C74.4543 240.171 74.3829 240.067 74.3316 239.954C74.2802 239.841 74.2389 239.726 74.207 239.613L74.3074 239.571L74.3965 239.561L74.4643 239.622L74.4998 239.721C74.5151 239.766 74.5363 239.816 74.5641 239.87C74.593 239.926 74.6296 239.982 74.6744 240.038C74.7199 240.096 74.7754 240.148 74.8438 240.197C74.9117 240.244 74.9931 240.283 75.0882 240.313C75.1844 240.343 75.2971 240.357 75.4281 240.357C75.5863 240.357 75.725 240.331 75.8442 240.278C75.964 240.225 76.0637 240.158 76.1434 240.076C76.2243 239.993 76.2839 239.902 76.3234 239.801C76.3629 239.7 76.383 239.6 76.383 239.505C76.383 239.39 76.3653 239.284 76.3287 239.185C76.2927 239.086 76.2319 239 76.1481 238.929C76.0626 238.858 75.951 238.802 75.8123 238.76C75.6742 238.719 75.5031 238.699 75.3006 238.699V238.516C75.4629 238.512 75.6058 238.49 75.7291 238.45C75.8524 238.411 75.9563 238.357 76.0395 238.287C76.1222 238.218 76.1847 238.137 76.2272 238.041C76.2703 237.946 76.2909 237.841 76.2909 237.727C76.2909 237.595 76.2679 237.479 76.2243 237.382C76.18 237.285 76.1204 237.204 76.0466 237.142C75.9728 237.078 75.8861 237.031 75.7875 237.001C75.6884 236.971 75.5857 236.956 75.4777 236.956C75.3597 236.956 75.2505 236.974 75.1495 237.011C75.0486 237.047 74.9607 237.096 74.884 237.162C74.8067 237.226 74.7429 237.303 74.6916 237.392C74.6402 237.481 74.6054 237.578 74.5859 237.684L74.5411 237.761L74.4584 237.773L74.3292 237.753Z" fill="white"/>
<path d="M78.9788 239.254V237.293L78.9823 237.194L78.9918 237.086L77.3723 239.254H78.9788ZM79.8865 239.254V239.392L79.8694 239.439L79.8156 239.455H79.2007V240.53H78.9788V239.455H77.2077L77.1469 239.439L77.1179 239.392L77.0938 239.267L78.977 236.779H79.2007V239.254H79.8865Z" fill="white"/>
<path d="M70.3885 245.008C70.3885 244.704 70.3601 244.445 70.3011 244.23C70.2433 244.015 70.1648 243.839 70.0668 243.702C69.9683 243.565 69.8544 243.465 69.7222 243.401C69.5911 243.338 69.453 243.306 69.3085 243.306C69.1639 243.306 69.0258 243.338 68.8959 243.401C68.7649 243.465 68.6504 243.565 68.5513 243.702C68.4527 243.839 68.3742 244.015 68.3164 244.23C68.2579 244.445 68.2278 244.704 68.2278 245.008C68.2278 245.314 68.2579 245.574 68.3164 245.787C68.3742 246.003 68.4527 246.179 68.5513 246.315C68.6504 246.451 68.7649 246.551 68.8959 246.614C69.0258 246.675 69.1639 246.708 69.3085 246.708C69.453 246.708 69.5911 246.675 69.7222 246.614C69.8544 246.551 69.9683 246.451 70.0668 246.315C70.1648 246.179 70.2433 246.003 70.3011 245.787C70.3601 245.574 70.3885 245.314 70.3885 245.008ZM70.6535 245.008C70.6535 245.337 70.6175 245.62 70.5472 245.861C70.477 246.101 70.3808 246.299 70.2586 246.456C70.1376 246.614 69.9948 246.73 69.8313 246.807C69.6685 246.884 69.4938 246.922 69.3085 246.922C69.1231 246.922 68.9502 246.884 68.7867 246.807C68.6244 246.73 68.4822 246.614 68.3612 246.456C68.2396 246.299 68.144 246.101 68.0738 245.861C68.0042 245.62 67.9688 245.337 67.9688 245.008C67.9688 244.679 68.0042 244.396 68.0738 244.156C68.144 243.916 68.2396 243.718 68.3612 243.561C68.4822 243.404 68.6244 243.287 68.7867 243.209C68.9502 243.133 69.1231 243.094 69.3085 243.094C69.4938 243.094 69.6685 243.133 69.8313 243.209C69.9948 243.287 70.1376 243.404 70.2586 243.561C70.3808 243.718 70.477 243.916 70.5472 244.156C70.6175 244.396 70.6535 244.679 70.6535 245.008Z" fill="white"/>
<path d="M73.4594 245.008C73.4594 244.704 73.4299 244.445 73.372 244.23C73.313 244.015 73.2351 243.839 73.1371 243.702C73.0392 243.565 72.9247 243.465 72.7931 243.401C72.6615 243.338 72.5234 243.306 72.3788 243.306C72.2336 243.306 72.0955 243.338 71.9662 243.401C71.8358 243.465 71.7213 243.565 71.621 243.702C71.5224 243.839 71.4439 244.015 71.3861 244.23C71.3277 244.445 71.2987 244.704 71.2987 245.008C71.2987 245.314 71.3277 245.574 71.3861 245.787C71.4439 246.003 71.5224 246.179 71.621 246.315C71.7213 246.451 71.8358 246.551 71.9662 246.614C72.0955 246.675 72.2336 246.708 72.3788 246.708C72.5234 246.708 72.6615 246.675 72.7931 246.614C72.9247 246.551 73.0392 246.451 73.1371 246.315C73.2351 246.179 73.313 246.003 73.372 245.787C73.4299 245.574 73.4594 245.314 73.4594 245.008ZM73.7244 245.008C73.7244 245.337 73.6884 245.62 73.6181 245.861C73.5473 246.101 73.4511 246.299 73.329 246.456C73.2074 246.614 73.0651 246.73 72.9017 246.807C72.7388 246.884 72.5641 246.922 72.3788 246.922C72.1935 246.922 72.0199 246.884 71.857 246.807C71.6947 246.73 71.5531 246.614 71.4309 246.456C71.3094 246.299 71.2138 246.101 71.1435 245.861C71.0739 245.62 71.0391 245.337 71.0391 245.008C71.0391 244.679 71.0739 244.396 71.1435 244.156C71.2138 243.916 71.3094 243.718 71.4309 243.561C71.5531 243.404 71.6947 243.287 71.857 243.209C72.0199 243.133 72.1935 243.094 72.3788 243.094C72.5641 243.094 72.7388 243.133 72.9017 243.209C73.0651 243.287 73.2074 243.404 73.329 243.561C73.4511 243.718 73.5473 243.916 73.6181 244.156C73.6884 244.396 73.7244 244.679 73.7244 245.008Z" fill="white"/>
<path d="M76.5291 245.008C76.5291 244.704 76.4996 244.445 76.4412 244.23C76.3827 244.015 76.3042 243.839 76.2063 243.702C76.1083 243.565 75.9938 243.465 75.8628 243.401C75.7312 243.338 75.5925 243.306 75.4485 243.306C75.3039 243.306 75.1658 243.338 75.0354 243.401C74.9049 243.465 74.7904 243.565 74.6913 243.702C74.5927 243.839 74.5142 244.015 74.4552 244.23C74.3968 244.445 74.3679 244.704 74.3679 245.008C74.3679 245.314 74.3968 245.574 74.4552 245.787C74.5142 246.003 74.5927 246.179 74.6913 246.315C74.7904 246.451 74.9049 246.551 75.0354 246.614C75.1658 246.675 75.3039 246.708 75.4485 246.708C75.5925 246.708 75.7312 246.675 75.8628 246.614C75.9938 246.551 76.1083 246.451 76.2063 246.315C76.3042 246.179 76.3827 246.003 76.4412 245.787C76.4996 245.574 76.5291 245.314 76.5291 245.008ZM76.7935 245.008C76.7935 245.337 76.7575 245.62 76.6873 245.861C76.617 246.101 76.5203 246.299 76.3987 246.456C76.2765 246.614 76.1349 246.73 75.9708 246.807C75.8079 246.884 75.6338 246.922 75.4485 246.922C75.2632 246.922 75.0897 246.884 74.9268 246.807C74.7639 246.73 74.6222 246.614 74.5007 246.456C74.3791 246.299 74.2835 246.101 74.2132 245.861C74.1442 245.62 74.1094 245.337 74.1094 245.008C74.1094 244.679 74.1442 244.396 74.2132 244.156C74.2835 243.916 74.3791 243.718 74.5007 243.561C74.6222 243.404 74.7639 243.287 74.9268 243.209C75.0897 243.133 75.2632 243.094 75.4485 243.094C75.6338 243.094 75.8079 243.133 75.9708 243.209C76.1349 243.287 76.2765 243.404 76.3987 243.561C76.5203 243.718 76.617 243.916 76.6873 244.156C76.7575 244.396 76.7935 244.679 76.7935 245.008Z" fill="white"/>
<path d="M79.5994 245.008C79.5994 244.704 79.5705 244.445 79.5121 244.23C79.4542 244.015 79.3751 243.839 79.2778 243.702C79.1798 243.565 79.0647 243.465 78.9337 243.401C78.8021 243.338 78.6634 243.306 78.52 243.306C78.3742 243.306 78.2367 243.338 78.1063 243.401C77.9758 243.465 77.8613 243.565 77.7616 243.702C77.663 243.839 77.5845 244.015 77.5261 244.23C77.4683 244.445 77.4388 244.704 77.4388 245.008C77.4388 245.314 77.4683 245.574 77.5261 245.787C77.5845 246.003 77.663 246.179 77.7616 246.315C77.8613 246.451 77.9758 246.551 78.1063 246.614C78.2367 246.675 78.3742 246.708 78.52 246.708C78.6634 246.708 78.8021 246.675 78.9337 246.614C79.0647 246.551 79.1798 246.451 79.2778 246.315C79.3751 246.179 79.4542 246.003 79.5121 245.787C79.5705 245.574 79.5994 245.314 79.5994 245.008ZM79.8644 245.008C79.8644 245.337 79.8278 245.62 79.7576 245.861C79.6873 246.101 79.5912 246.299 79.4702 246.456C79.348 246.614 79.2052 246.73 79.0417 246.807C78.8788 246.884 78.7041 246.922 78.52 246.922C78.3335 246.922 78.1606 246.884 77.9971 246.807C77.8354 246.73 77.6926 246.614 77.5716 246.456C77.4506 246.299 77.3544 246.101 77.2842 245.861C77.2145 245.62 77.1797 245.337 77.1797 245.008C77.1797 244.679 77.2145 244.396 77.2842 244.156C77.3544 243.916 77.4506 243.718 77.5716 243.561C77.6926 243.404 77.8354 243.287 77.9971 243.209C78.1606 243.133 78.3335 243.094 78.52 243.094C78.7041 243.094 78.8788 243.133 79.0417 243.209C79.2052 243.287 79.348 243.404 79.4702 243.561C79.5912 243.718 79.6873 243.916 79.7576 244.156C79.8278 244.396 79.8644 244.679 79.8644 245.008Z" fill="white"/>
<g filter="url(#filter0_d_224_132)">
<path d="M160.939 203.748L184.104 190.412L237.356 221.077L267.413 203.719L214.219 172.997L237.616 159.777L313.802 203.719L237.356 247.836L160.91 203.719L160.939 203.748ZM315.568 174.01V200.624L239.122 156.566V136.981L262.288 123.616V143.143L315.568 173.894V174.01ZM315.568 93.0092V169.497L292.403 156.132V106.374L315.568 93.0092ZM313.831 90.1163L290.666 103.481L237.385 72.7591L207.328 90.1163L260.55 120.868L237.153 134.088L160.939 90.0874L237.356 46L313.831 90.0874V90.1163ZM159.201 119.855V93.0092L235.647 137.126V156.71L212.482 170.075V150.491L159.201 119.768V119.855ZM159.201 123.818L182.367 138.08V187.519L159.201 200.856V123.732V123.818Z" fill="url(#paint2_linear_224_132)"/>
</g>
<defs>
<filter id="filter0_d_224_132" x="109.201" y="0" width="256.367" height="301.836" filterUnits="userSpaceOnUse" color-interpolation-filters="sRGB">
<feFlood flood-opacity="0" result="BackgroundImageFix"/>
<feColorMatrix in="SourceAlpha" type="matrix" values="0 0 0 0 0 0 0 0 0 0 0 0 0 0 0 0 0 0 127 0" result="hardAlpha"/>
<feOffset dy="4"/>
<feGaussianBlur stdDeviation="25"/>
<feComposite in2="hardAlpha" operator="out"/>
<feColorMatrix type="matrix" values="0 0 0 0 0.74902 0 0 0 0 0.0705882 0 0 0 0 0.0196078 0 0 0 0.5 0"/>
<feBlend mode="normal" in2="BackgroundImageFix" result="effect1_dropShadow_224_132"/>
<feBlend mode="normal" in="SourceGraphic" in2="effect1_dropShadow_224_132" result="shape"/>
</filter>
<linearGradient id="paint0_linear_224_132" x1="60.5" y1="226.985" x2="179.263" y2="226.985" gradientUnits="userSpaceOnUse">
<stop stop-color="#E80F0F" stop-opacity="0"/>
<stop offset="0.544792" stop-color="#E80F0F"/>
<stop offset="1" stop-color="#E80F0F" stop-opacity="0"/>
</linearGradient>
<linearGradient id="paint1_linear_224_132" x1="-17.5039" y1="212.432" x2="46.3569" y2="325.452" gradientUnits="userSpaceOnUse">
<stop stop-color="#D41700"/>
<stop offset="1" stop-color="#7F0011"/>
</linearGradient>
<linearGradient id="paint2_linear_224_132" x1="127.957" y1="234.471" x2="404.892" y2="12.3532" gradientUnits="userSpaceOnUse">
<stop stop-color="#D41700"/>
<stop offset="1" stop-color="#7F0011"/>
</linearGradient>
</defs>
</svg>
