<svg width="54" height="59" viewBox="0 0 54 59" fill="none" xmlns="http://www.w3.org/2000/svg">
<path d="M18.1437 0.993706C17.1604 1.29884 16.2902 2.05603 15.8608 2.98273L15.6009 3.54779L15.567 10.0799C15.5444 15.0751 15.4992 16.6008 15.3974 16.5556C14.7081 16.273 13.9735 16.1261 13.4423 16.1939C11.8036 16.3861 10.5266 17.5501 10.2441 19.1323C10.165 19.5843 10.1197 23.1216 10.1197 29.7103V39.6102L9.33996 40.3787L8.57147 41.1472L7.9725 40.9663C6.80847 40.616 5.35061 40.7968 4.28829 41.4184C3.62151 41.8139 2.80782 42.718 2.45748 43.4752C2.18625 44.0516 2.15234 44.255 2.15234 45.3625C2.15234 46.5492 2.17495 46.6509 2.53659 47.3968C2.87563 48.0861 3.28247 48.5495 5.81396 51.1036C7.39614 52.7084 8.8088 54.0419 8.95571 54.0758C9.38516 54.1888 9.76941 54.0306 9.96153 53.6464C10.0971 53.3978 10.1084 53.2282 10.0293 53.0587C9.97283 52.9231 8.61668 51.4878 7.0232 49.8604C5.2828 48.0861 4.05096 46.7413 3.96055 46.504C3.87014 46.2779 3.79103 45.7807 3.79103 45.3964C3.80233 44.2324 4.34479 43.3057 5.3167 42.7858C5.93827 42.4581 7.27182 42.4468 7.916 42.7632C8.59407 43.091 17.669 52.2789 17.9967 52.9683C18.5166 54.0645 18.2228 55.5563 17.33 56.3361C16.1546 57.3645 14.482 57.2628 13.1824 56.0988C12.6625 55.6241 12.1992 55.5789 11.8375 55.9631C11.7019 56.1101 11.5889 56.37 11.5889 56.5508C11.5889 57.195 13.1598 58.3364 14.4255 58.6302C16.4598 59.1049 18.6861 57.9974 19.5902 56.0649C19.8615 55.4998 19.8954 55.2851 19.8954 54.234C19.8954 53.1943 19.8615 52.957 19.5902 52.3128L19.2738 51.5782L20.031 50.8211L20.7882 50.0526H21.7149C24.608 50.0526 27.4333 48.8772 29.5919 46.7865C30.2925 46.1084 31.1627 44.9896 31.5922 44.2098L31.8521 43.7352L34.6887 43.7013L37.5253 43.6673L38.1356 43.3283C38.7911 42.9667 39.3788 42.3225 39.6952 41.6218C39.876 41.2263 39.8986 40.6951 39.9325 36.6945L39.9664 32.2078L40.5202 32.027C41.9102 31.5637 42.7804 30.3431 42.7804 28.874C42.7804 27.9812 42.5205 27.2692 42.0233 26.7493L41.7407 26.4555L42.0233 26.0713C43.0178 24.7829 43.0404 23.0651 42.0911 21.8785L41.752 21.4603L42.0911 21.0309C43.0178 19.8895 43.0178 18.0586 42.0911 16.9059L41.752 16.4878L42.0911 16.0583C43.4585 14.3631 42.6448 11.5265 40.5993 10.8823L39.9664 10.6902L39.9325 7.06249C39.8986 3.51389 39.8873 3.42348 39.6274 2.90362C39.2771 2.19164 38.6555 1.55877 37.9661 1.21973L37.4123 0.948502L31.4679 0.914597C25.7607 0.880692 25.5121 0.891994 25.2635 1.09542C24.9357 1.36665 24.8905 2.03342 25.1844 2.33856C25.3652 2.51938 25.8737 2.53068 31.2531 2.58718C36.949 2.64369 37.1185 2.65499 37.4236 2.88102C37.9209 3.25396 38.1695 3.64951 38.226 4.21457L38.2938 4.73443H27.8176H17.3526V4.23717C17.3526 3.63821 17.7142 3.06184 18.2567 2.79061C18.5731 2.63239 18.946 2.58718 20.0423 2.58718C21.3645 2.58718 21.4436 2.57589 21.7036 2.30465C21.8618 2.15774 21.9861 1.89781 21.9861 1.73959C21.9861 1.58137 21.8618 1.32144 21.7036 1.17453C21.4436 0.903294 21.3758 0.891994 19.9293 0.903294C19.1043 0.903294 18.3019 0.948502 18.1437 0.993706ZM38.2599 8.57687V10.7241H37.8305C36.2257 10.7241 34.7565 12.2498 34.7565 13.9337C34.7565 14.8604 34.9148 15.3689 35.3894 15.9792L35.7737 16.4991L35.4459 16.9172C34.5192 18.0699 34.5192 19.8895 35.4572 21.0422L35.7963 21.4829L35.5137 21.7768C35.0504 22.2853 34.8356 22.8278 34.7791 23.6754C34.7226 24.636 34.8582 25.1445 35.4007 25.913L35.7963 26.4555L35.5024 26.7606C34.7226 27.5743 34.5192 29.1226 35.0278 30.2414C35.5363 31.3377 36.7908 32.1965 37.8757 32.1965H38.2599L38.2373 34.3099L38.2034 36.4345H30.1908H22.1895L21.9183 35.4965C21.2176 33.0893 19.9293 31.202 18.1437 29.9815L17.3526 29.439V17.9343V6.42962H27.8062H38.2599V8.57687ZM40.3733 12.6453C41.3678 13.2443 41.3 14.8717 40.2603 15.448C39.7404 15.7193 37.7853 15.7193 37.2654 15.4367C36.2257 14.8717 36.1692 13.2443 37.1637 12.6453C37.4688 12.4532 37.7401 12.4193 38.7685 12.4193C39.7969 12.4193 40.0681 12.4532 40.3733 12.6453ZM40.3733 17.6179C40.8253 17.8891 41.0853 18.3751 41.0853 18.974C41.0853 19.573 40.8253 20.059 40.3733 20.3302C40.0681 20.5223 39.7969 20.5562 38.7911 20.5562C37.9096 20.5562 37.4801 20.511 37.2315 20.3867C36.2257 19.8555 36.1805 18.2056 37.1637 17.6179C37.4688 17.4258 37.7401 17.3919 38.7685 17.3919C39.7969 17.3919 40.0681 17.4258 40.3733 17.6179ZM14.8324 18.2508C15.5557 18.7819 15.5444 18.7028 15.5444 24.7151C15.5444 28.1733 15.5896 30.2527 15.6574 30.3883C15.7252 30.5127 16.1433 30.7952 16.5954 31.0325C17.5786 31.5524 18.7426 32.6599 19.2964 33.6092C20.3022 35.3383 20.6864 36.9657 20.596 39.0225C20.5282 40.7064 20.3361 41.4297 19.6128 42.8763C19.3077 43.5091 19.0478 44.1081 19.0478 44.2324C19.0478 44.5715 19.4998 44.967 19.8954 44.967C20.2796 44.967 20.5508 44.7297 20.9238 44.0968L21.1272 43.7239H25.5234H29.9083L29.7049 44.0855C29.5919 44.2889 29.0155 44.9444 28.4278 45.5321C27.1847 46.7639 26.2241 47.3629 24.5854 47.9166C23.6248 48.2444 23.3309 48.2896 21.7375 48.3461L19.9519 48.4139L19.0139 49.3519L18.0645 50.2899L14.0413 46.244L10.018 42.1982L10.8882 41.3167L11.7584 40.4465L11.8149 29.7668C11.8714 19.1662 11.8714 19.0984 12.1088 18.7819C12.2331 18.6124 12.5156 18.3412 12.7303 18.2056C13.0581 17.9795 13.2276 17.9456 13.8153 17.9795C14.3012 18.0134 14.629 18.0925 14.8324 18.2508ZM40.3394 22.5113C41.3678 23.1894 41.3113 24.8394 40.249 25.348C39.9777 25.4723 39.537 25.5288 38.7685 25.5288C38 25.5288 37.5593 25.4723 37.288 25.348C36.0562 24.7603 36.2257 22.7826 37.5367 22.3644C38.1017 22.1836 39.989 22.2853 40.3394 22.5113ZM40.1812 27.4274C41.074 27.8682 41.3904 29.1 40.7914 29.8233C40.3055 30.3883 39.9777 30.5014 38.7572 30.5014C37.8531 30.5014 37.5932 30.4562 37.2428 30.264C36.6438 29.925 36.4065 29.439 36.4743 28.7045C36.5421 28.0603 36.836 27.6421 37.4123 27.3822C37.9322 27.1562 39.6952 27.1788 40.1812 27.4274ZM38.2599 39.4068C38.2599 40.4691 38.226 40.7064 38 41.1246C37.5027 42.0739 37.9661 42.0287 29.4223 42.0287C25.2635 42.0287 21.8731 41.9948 21.8731 41.9383C21.8731 41.893 21.9522 41.5766 22.0426 41.2376C22.1443 40.8985 22.246 40.0735 22.2912 39.3955L22.359 38.1862H30.3038H38.2599V39.4068Z" fill="#878787"/>
<path d="M20.924 10.3964C19.6921 11.6848 19.5 11.9334 19.5 12.2611C19.5 12.8714 20.1894 13.2783 20.7431 12.9844C20.8562 12.9279 21.5681 12.2046 22.3253 11.4022C23.5572 10.08 23.6928 9.88788 23.6363 9.61665C23.5346 9.1985 23.1616 8.91597 22.7209 8.91597C22.3931 8.91597 22.1897 9.08549 20.924 10.3964Z" fill="url(#paint0_linear_55_3911)"/>
<path d="M23.6108 13.0978C20.0509 16.7708 19.5537 17.3245 19.5198 17.6636C19.4746 18.1721 19.8023 18.5225 20.3222 18.5225C20.6499 18.5225 20.955 18.2512 23.4865 15.6745C25.0235 14.1037 26.8995 12.1598 27.6454 11.3688C28.8659 10.0804 29.0016 9.88828 28.945 9.61705C28.8433 9.1989 28.4704 8.91637 28.0409 8.91637C27.7019 8.91637 27.2951 9.31192 23.6108 13.0978Z" fill="url(#paint1_linear_55_3911)"/>
<path d="M11.4191 7.61599C11.0574 7.96633 11.0461 8.45229 11.3965 8.78003C11.8372 9.18687 12.391 9.09646 12.6735 8.5653C13.1143 7.6951 12.0971 6.92662 11.4191 7.61599Z" fill="url(#paint2_linear_55_3911)"/>
<path d="M42.4484 7.85361C42.1545 8.22655 42.1545 8.46388 42.4371 8.83682C42.7422 9.22106 43.036 9.30017 43.4316 9.09675C43.7932 8.91593 43.9062 8.71251 43.9062 8.28306C43.9062 7.59368 42.8891 7.28855 42.4484 7.85361Z" fill="url(#paint3_linear_55_3911)"/>
<path d="M8.11849 10.6111C7.62123 10.8145 7.47431 11.583 7.85856 11.9673C8.17499 12.2837 8.70615 12.2611 9.04519 11.9108C9.41814 11.5491 9.39553 11.2327 8.99999 10.8258C8.64965 10.4755 8.52533 10.4529 8.11849 10.6111Z" fill="url(#paint4_linear_55_3911)"/>
<path d="M46.2036 10.8373C45.4125 11.165 45.6838 12.4194 46.554 12.4194C46.9382 12.4194 47.4129 11.9561 47.4129 11.5944C47.4129 11.0181 46.7461 10.6112 46.2036 10.8373Z" fill="url(#paint5_linear_55_3911)"/>
<path d="M5.01874 14.5441C4.6458 14.8492 4.6797 15.4256 5.07524 15.7759C5.44819 16.0924 5.70812 16.1037 6.09236 15.7985C6.30708 15.629 6.38619 15.4595 6.38619 15.177C6.38619 14.4424 5.6064 14.0808 5.01874 14.5441Z" fill="url(#paint6_linear_55_3911)"/>
<path d="M48.8294 14.8491C48.6712 14.996 48.5469 15.2559 48.5469 15.4141C48.5469 15.5723 48.6712 15.8323 48.8294 15.9792C48.9763 16.1374 49.2363 16.2617 49.3945 16.2617C49.5527 16.2617 49.8126 16.1374 49.9595 15.9792C50.1178 15.8323 50.2421 15.5723 50.2421 15.4141C50.2421 15.2559 50.1178 14.996 49.9595 14.8491C49.8126 14.6908 49.5527 14.5665 49.3945 14.5665C49.2363 14.5665 48.9763 14.6908 48.8294 14.8491Z" fill="url(#paint7_linear_55_3911)"/>
<path d="M3.22522 18.601C2.86358 18.7366 2.66016 19.0191 2.66016 19.392C2.66016 20.4092 4.07282 20.5109 4.31014 19.5164C4.36665 19.2677 4.31014 19.1434 4.03891 18.8609C3.69987 18.5218 3.55296 18.4766 3.22522 18.601Z" fill="url(#paint8_linear_55_3911)"/>
<path d="M50.8617 19.1434C50.5452 19.4485 50.5226 19.618 50.7034 20.0362C50.9634 20.6125 51.8675 20.6577 52.15 20.1153C52.636 19.2225 51.5736 18.4201 50.8617 19.1434Z" fill="url(#paint9_linear_55_3911)"/>
<path d="M1.54236 23.4498C1.27113 23.7889 1.24853 23.9358 1.42935 24.3313C1.62147 24.7495 2.10742 24.9077 2.52557 24.693C3.05673 24.4217 3.16974 23.8341 2.7742 23.4046C2.43516 23.043 1.84749 23.0656 1.54236 23.4498Z" fill="url(#paint10_linear_55_3911)"/>
<path d="M52.3054 23.5173C51.9099 23.7094 51.763 24.1954 51.9777 24.6022C52.0681 24.783 52.2376 24.9639 52.328 25.0091C53.2322 25.3481 53.9554 24.1954 53.2209 23.619C52.8931 23.3591 52.6784 23.3365 52.3054 23.5173Z" fill="url(#paint11_linear_55_3911)"/>
<path d="M1.45053 27.9132C1.168 28.0149 0.851562 28.4444 0.851562 28.7043C0.851562 28.806 0.953274 29.0207 1.08889 29.1903C1.54094 29.7666 2.54675 29.4502 2.54675 28.7156C2.54675 28.094 2.00429 27.7098 1.45053 27.9132Z" fill="url(#paint12_linear_55_3911)"/>
<path d="M52.5188 28.388C52.1684 28.7609 52.191 29.2921 52.564 29.5859C53.0499 29.9701 53.5359 29.8797 53.8071 29.3599C54.2479 28.501 53.1742 27.6873 52.5188 28.388Z" fill="url(#paint13_linear_55_3911)"/>
<path d="M1.79013 32.6488C0.999041 32.9765 1.28157 34.231 2.14047 34.231C2.58122 34.231 2.99937 33.8354 2.99937 33.4173C2.99937 32.8409 2.34389 32.4228 1.79013 32.6488Z" fill="url(#paint14_linear_55_3911)"/>
<path d="M52.0691 33.0557C51.7527 33.2705 51.7188 33.9937 52.0239 34.265C52.589 34.7735 53.4027 34.4571 53.4027 33.7112C53.4027 32.9992 52.6681 32.6376 52.0691 33.0557Z" fill="url(#paint15_linear_55_3911)"/>
<path d="M2.90974 37.3499C2.582 37.5759 2.5594 38.2879 2.88714 38.5817C3.4296 39.079 4.24329 38.6721 4.24329 37.9036C4.24329 37.2482 3.49741 36.9317 2.90974 37.3499Z" fill="url(#paint16_linear_55_3911)"/>
<path d="M50.712 37.6212C50.0113 38.2767 50.9719 39.5085 51.7291 38.9322C52.0456 38.6948 52.1586 38.2767 51.9891 37.8924C51.763 37.35 51.1415 37.2144 50.712 37.6212Z" fill="url(#paint17_linear_55_3911)"/>
<path d="M48.5862 41.8367C47.9759 42.3679 48.315 43.272 49.1174 43.272C49.8633 43.272 50.191 42.2775 49.6033 41.8141C49.2191 41.509 48.9592 41.5203 48.5862 41.8367Z" fill="url(#paint18_linear_55_3911)"/>
<path d="M45.6068 45.6453C45.0982 46.1539 45.4825 47.0015 46.217 47.0015C46.6352 47.0015 47.0759 46.5946 47.0759 46.2104C47.0759 46.0974 46.9742 45.8826 46.8386 45.7131C46.5448 45.3402 45.9458 45.3063 45.6068 45.6453Z" fill="url(#paint19_linear_55_3911)"/>
<path d="M42.4401 48.5494C42.0671 48.6851 41.875 48.9676 41.875 49.3857C41.875 49.8717 42.1801 50.1655 42.6661 50.1655C43.152 50.1655 43.4572 49.8717 43.4572 49.3857C43.4572 48.8094 42.926 48.3686 42.4401 48.5494Z" fill="url(#paint20_linear_55_3911)"/>
<path d="M38.0985 51.1937C37.8838 51.3632 37.8047 51.5327 37.8047 51.804C37.8047 52.6968 38.9235 52.9793 39.3304 52.1882C39.5338 51.804 39.4208 51.4084 39.0252 51.1372C38.6862 50.8999 38.4602 50.9112 38.0985 51.1937Z" fill="url(#paint21_linear_55_3911)"/>
<path d="M33.6488 52.844C33.5131 52.957 33.3775 53.1831 33.3323 53.3526C33.2758 53.6012 33.3323 53.7255 33.6036 54.008C34.0104 54.4036 34.2816 54.4375 34.6885 54.1098C34.8919 53.9402 34.9823 53.7707 34.9823 53.5108C34.9823 52.8101 34.1686 52.4033 33.6488 52.844Z" fill="url(#paint22_linear_55_3911)"/>
<path d="M24.1436 53.7368C24.008 53.9063 23.9062 54.1211 23.9062 54.2341C23.9062 54.494 24.3018 54.9913 24.5843 55.0817C24.8443 55.1608 25.4319 54.8782 25.5336 54.6296C25.8727 53.7255 24.7199 53.0022 24.1436 53.7368Z" fill="url(#paint23_linear_55_3911)"/>
<path d="M28.9349 53.7255C28.7767 53.8724 28.6523 54.1324 28.6523 54.2906C28.6523 54.6635 29.127 55.1382 29.4999 55.1382C29.8729 55.1382 30.3475 54.6635 30.3475 54.2906C30.3475 53.9176 29.8729 53.443 29.4999 53.443C29.3417 53.443 29.0818 53.5673 28.9349 53.7255Z" fill="url(#paint24_linear_55_3911)"/>
<defs>
<linearGradient id="paint0_linear_55_3911" x1="18.6714" y1="9.19183" x2="24.5246" y2="15.2234" gradientUnits="userSpaceOnUse">
<stop stop-color="#D41700"/>
<stop offset="1" stop-color="#7F0011"/>
</linearGradient>
<linearGradient id="paint1_linear_55_3911" x1="17.6294" y1="9.55246" x2="31.1297" y2="23.2873" gradientUnits="userSpaceOnUse">
<stop stop-color="#D41700"/>
<stop offset="1" stop-color="#7F0011"/>
</linearGradient>
<linearGradient id="paint2_linear_55_3911" x1="10.8129" y1="7.46125" x2="13.1798" y2="9.84782" gradientUnits="userSpaceOnUse">
<stop stop-color="#D41700"/>
<stop offset="1" stop-color="#7F0011"/>
</linearGradient>
<linearGradient id="paint3_linear_55_3911" x1="41.8909" y1="7.66803" x2="44.2019" y2="10.1086" gradientUnits="userSpaceOnUse">
<stop stop-color="#D41700"/>
<stop offset="1" stop-color="#7F0011"/>
</linearGradient>
<linearGradient id="paint4_linear_55_3911" x1="7.30679" y1="10.6279" x2="9.65676" y2="13.0577" gradientUnits="userSpaceOnUse">
<stop stop-color="#D41700"/>
<stop offset="1" stop-color="#7F0011"/>
</linearGradient>
<linearGradient id="paint5_linear_55_3911" x1="45.399" y1="10.8827" x2="47.7087" y2="13.3216" gradientUnits="userSpaceOnUse">
<stop stop-color="#D41700"/>
<stop offset="1" stop-color="#7F0011"/>
</linearGradient>
<linearGradient id="paint6_linear_55_3911" x1="4.43244" y1="14.449" x2="6.79801" y2="16.8186" gradientUnits="userSpaceOnUse">
<stop stop-color="#D41700"/>
<stop offset="1" stop-color="#7F0011"/>
</linearGradient>
<linearGradient id="paint7_linear_55_3911" x1="48.2082" y1="14.6788" x2="50.5895" y2="17.1441" gradientUnits="userSpaceOnUse">
<stop stop-color="#D41700"/>
<stop offset="1" stop-color="#7F0011"/>
</linearGradient>
<linearGradient id="paint8_linear_55_3911" x1="2.3265" y1="18.6485" x2="4.67711" y2="21.0771" gradientUnits="userSpaceOnUse">
<stop stop-color="#D41700"/>
<stop offset="1" stop-color="#7F0011"/>
</linearGradient>
<linearGradient id="paint9_linear_55_3911" x1="50.2535" y1="18.9711" x2="52.545" y2="21.4154" gradientUnits="userSpaceOnUse">
<stop stop-color="#D41700"/>
<stop offset="1" stop-color="#7F0011"/>
</linearGradient>
<linearGradient id="paint10_linear_55_3911" x1="0.973205" y1="23.2556" x2="3.2753" y2="25.7208" gradientUnits="userSpaceOnUse">
<stop stop-color="#D41700"/>
<stop offset="1" stop-color="#7F0011"/>
</linearGradient>
<linearGradient id="paint11_linear_55_3911" x1="51.5503" y1="23.5102" x2="53.8983" y2="25.9026" gradientUnits="userSpaceOnUse">
<stop stop-color="#D41700"/>
<stop offset="1" stop-color="#7F0011"/>
</linearGradient>
<linearGradient id="paint12_linear_55_3911" x1="0.512838" y1="27.9663" x2="2.79675" y2="30.4264" gradientUnits="userSpaceOnUse">
<stop stop-color="#D41700"/>
<stop offset="1" stop-color="#7F0011"/>
</linearGradient>
<linearGradient id="paint13_linear_55_3911" x1="51.9417" y1="28.2352" x2="54.3307" y2="30.6228" gradientUnits="userSpaceOnUse">
<stop stop-color="#D41700"/>
<stop offset="1" stop-color="#7F0011"/>
</linearGradient>
<linearGradient id="paint14_linear_55_3911" x1="0.989499" y1="32.6953" x2="3.29787" y2="35.1295" gradientUnits="userSpaceOnUse">
<stop stop-color="#D41700"/>
<stop offset="1" stop-color="#7F0011"/>
</linearGradient>
<linearGradient id="paint15_linear_55_3911" x1="51.4948" y1="32.9865" x2="53.7928" y2="35.3004" gradientUnits="userSpaceOnUse">
<stop stop-color="#D41700"/>
<stop offset="1" stop-color="#7F0011"/>
</linearGradient>
<linearGradient id="paint16_linear_55_3911" x1="2.33445" y1="37.2695" x2="4.63792" y2="39.5846" gradientUnits="userSpaceOnUse">
<stop stop-color="#D41700"/>
<stop offset="1" stop-color="#7F0011"/>
</linearGradient>
<linearGradient id="paint17_linear_55_3911" x1="50.1493" y1="37.497" x2="52.5337" y2="39.823" gradientUnits="userSpaceOnUse">
<stop stop-color="#D41700"/>
<stop offset="1" stop-color="#7F0011"/>
</linearGradient>
<linearGradient id="paint18_linear_55_3911" x1="47.9474" y1="41.7034" x2="50.3085" y2="44.0781" gradientUnits="userSpaceOnUse">
<stop stop-color="#D41700"/>
<stop offset="1" stop-color="#7F0011"/>
</linearGradient>
<linearGradient id="paint19_linear_55_3911" x1="45.0351" y1="45.5162" x2="47.2594" y2="47.9786" gradientUnits="userSpaceOnUse">
<stop stop-color="#D41700"/>
<stop offset="1" stop-color="#7F0011"/>
</linearGradient>
<linearGradient id="paint20_linear_55_3911" x1="41.5589" y1="48.6181" x2="43.888" y2="50.9203" gradientUnits="userSpaceOnUse">
<stop stop-color="#D41700"/>
<stop offset="1" stop-color="#7F0011"/>
</linearGradient>
<linearGradient id="paint21_linear_55_3911" x1="37.48" y1="51.081" x2="39.8445" y2="53.4456" gradientUnits="userSpaceOnUse">
<stop stop-color="#D41700"/>
<stop offset="1" stop-color="#7F0011"/>
</linearGradient>
<linearGradient id="paint22_linear_55_3911" x1="32.9788" y1="52.7716" x2="35.3272" y2="55.2001" gradientUnits="userSpaceOnUse">
<stop stop-color="#D41700"/>
<stop offset="1" stop-color="#7F0011"/>
</linearGradient>
<linearGradient id="paint23_linear_55_3911" x1="23.5688" y1="53.5444" x2="25.9002" y2="55.9984" gradientUnits="userSpaceOnUse">
<stop stop-color="#D41700"/>
<stop offset="1" stop-color="#7F0011"/>
</linearGradient>
<linearGradient id="paint24_linear_55_3911" x1="28.3136" y1="53.5552" x2="30.6949" y2="56.0206" gradientUnits="userSpaceOnUse">
<stop stop-color="#D41700"/>
<stop offset="1" stop-color="#7F0011"/>
</linearGradient>
</defs>
</svg>
