<svg width="32" height="32" viewBox="0 0 32 32" fill="none" xmlns="http://www.w3.org/2000/svg">
<circle cx="16" cy="16" r="16" fill="#232323"/>
<g clip-path="url(#clip0_55_4190)">
<path d="M23 11.6591C22.4794 11.8875 21.9246 12.0389 21.3462 12.1124C21.9412 11.7571 22.3954 11.1989 22.6089 10.526C22.0541 10.8567 21.4416 11.0904 20.7889 11.2208C20.2621 10.6599 19.5114 10.3125 18.6924 10.3125C17.1034 10.3125 15.8241 11.6023 15.8241 13.1834C15.8241 13.4109 15.8434 13.6296 15.8906 13.8379C13.5045 13.7215 11.3931 12.5779 9.97475 10.8358C9.72712 11.2654 9.58188 11.7571 9.58188 12.2865C9.58188 13.2805 10.0938 14.1616 10.8568 14.6718C10.3956 14.663 9.94325 14.5291 9.56 14.3183C9.56 14.327 9.56 14.3384 9.56 14.3498C9.56 15.7445 10.5549 16.903 11.8595 17.1699C11.6259 17.2337 11.3712 17.2644 11.107 17.2644C10.9232 17.2644 10.7377 17.2539 10.5636 17.2154C10.9355 18.352 11.9908 19.1876 13.2455 19.2148C12.269 19.9786 11.0291 20.4389 9.68688 20.4389C9.4515 20.4389 9.22575 20.4284 9 20.3995C10.2714 21.2194 11.7781 21.6875 13.403 21.6875C18.6845 21.6875 21.572 17.3125 21.572 13.5202C21.572 13.3934 21.5676 13.2709 21.5615 13.1493C22.1311 12.745 22.6097 12.2401 23 11.6591Z" fill="#AB1D1D"/>
</g>
<defs>
<clipPath id="clip0_55_4190">
<rect width="14" height="14" fill="white" transform="translate(9 9)"/>
</clipPath>
</defs>
</svg>
