<svg width="59" height="59" viewBox="0 0 59 59" fill="none" xmlns="http://www.w3.org/2000/svg">
<path d="M18.2627 1.13251C16.8698 1.58065 15.6102 2.85241 15.1742 4.2695C14.4232 6.65555 15.5012 9.05371 17.8146 10.1317C18.4807 10.4466 18.7956 10.5071 19.6435 10.5435L20.673 10.5677L20.9273 11.2096C21.0727 11.5609 21.2301 11.8516 21.2786 11.8395C21.6056 11.8152 22.9258 11.2339 22.9258 11.1127C22.9258 11.028 22.8168 10.713 22.6836 10.3981L22.4413 9.82888L23.0469 9.29595C23.6041 8.78725 24.5003 7.29749 24.5003 6.87357C24.5003 6.72823 25.3482 6.704 29.4662 6.704C33.5843 6.704 34.4321 6.72823 34.4321 6.87357C34.4321 7.29749 35.3284 8.78725 35.8856 9.28384L36.4912 9.82888L36.0067 10.9916L35.5343 12.1665L35.8008 12.2634C35.9461 12.3239 36.3579 12.4814 36.7092 12.6267C37.3027 12.869 37.3511 12.869 37.4238 12.6631C37.4722 12.5541 37.6781 12.0332 37.884 11.5124L38.2595 10.5677L39.289 10.5435C40.1005 10.5071 40.4639 10.4345 41.0695 10.1559L41.8446 9.81676L45.7204 13.7047L49.6084 17.5805L49.2692 18.3557C48.9907 18.9613 48.918 19.3246 48.8817 20.1361L48.8574 21.1656L45.4903 22.5101C43.6372 23.2489 42.0263 23.8908 41.9173 23.9393C41.7114 24.0119 41.7114 24.0604 41.9536 24.6539C42.099 25.0051 42.2564 25.4169 42.317 25.5623C42.4139 25.8166 42.4987 25.7924 46.0111 24.3874L49.6084 22.9461L50.1413 23.5396C50.6379 24.0967 52.1277 24.993 52.5516 24.993C52.6969 24.993 52.7211 25.8408 52.7211 29.9589C52.7211 34.077 52.6969 34.9248 52.5516 34.9248C52.1277 34.9248 50.6379 35.8211 50.1413 36.3782L49.6084 36.9717L48.2397 36.4267C47.4888 36.1239 46.8347 35.918 46.7742 35.9785C46.6773 36.0875 46.0475 37.6136 46.0959 37.65C46.108 37.6621 46.7378 37.9164 47.4888 38.2192L48.8574 38.7522L48.8817 39.7817C48.918 40.5932 48.9907 40.9565 49.2692 41.5621L49.6084 42.3252L48.6515 43.2941L47.6947 44.251L48.3972 44.9414L49.1118 45.6196L50.0565 44.6749L51.0134 43.7302L51.7764 44.0814C52.4426 44.3842 52.6848 44.4327 53.7022 44.4327C54.7923 44.4327 54.9013 44.4084 55.7733 43.9845C56.8755 43.4395 57.5538 42.737 58.0867 41.6106C58.438 40.8718 58.4743 40.6901 58.4743 39.6484C58.4743 38.6068 58.438 38.4251 58.0867 37.6863C57.578 36.5962 56.8755 35.8695 55.8339 35.3487C55.3737 35.1186 54.9134 34.9248 54.8286 34.9248C54.6833 34.9248 54.659 34.077 54.659 29.9589C54.659 25.8408 54.6833 24.993 54.8286 24.993C54.9134 24.993 55.3737 24.7992 55.8339 24.5691C56.8755 24.0483 57.578 23.3216 58.0867 22.2315C58.438 21.4927 58.4743 21.311 58.4743 20.2694C58.4743 19.2277 58.438 19.0461 58.0867 18.3072C57.5538 17.1808 56.8755 16.4783 55.7733 15.9333C54.9013 15.5094 54.7923 15.4851 53.7022 15.4851C52.6848 15.4851 52.4426 15.5336 51.7764 15.8364L51.0012 16.1876L47.1254 12.2997L43.2375 8.42389L43.5887 7.64873C43.8915 6.98257 43.94 6.74034 43.94 5.72293C43.94 4.63286 43.9158 4.52385 43.4918 3.65179C42.9468 2.54961 42.2443 1.87134 41.1179 1.33842C40.3791 0.987171 40.1974 0.950832 39.1558 0.950832C38.1142 0.950832 37.9325 0.987171 37.1936 1.33842C36.1036 1.84712 35.3769 2.54961 34.856 3.59124C34.6259 4.05149 34.4321 4.51174 34.4321 4.59652C34.4321 4.74187 33.5843 4.76609 29.4662 4.76609C25.5783 4.76609 24.5003 4.72976 24.5003 4.60863C24.5003 4.29373 23.7736 2.9493 23.3497 2.48905C22.0901 1.08406 20.0916 0.55114 18.2627 1.13251ZM20.673 2.97353C21.3391 3.16732 22.3444 4.17261 22.5382 4.83876C22.8773 5.97728 22.6351 6.88568 21.7752 7.73351C21.1575 8.36333 20.5397 8.64191 19.7767 8.64191C18.2748 8.64191 16.8698 7.23693 16.8698 5.73505C16.8698 4.97199 17.1484 4.35429 17.7782 3.73658C18.6261 2.87663 19.5345 2.6465 20.673 2.97353ZM40.0521 2.97353C41.0937 3.28844 42.0626 4.62075 42.0626 5.73505C42.0626 7.23693 40.6577 8.64191 39.1558 8.64191C38.3927 8.64191 37.775 8.36333 37.1573 7.73351C35.9219 6.51021 35.9219 4.95988 37.1573 3.73658C38.0051 2.87663 38.9135 2.6465 40.0521 2.97353ZM54.5864 17.5078C55.628 17.8228 56.597 19.1551 56.597 20.2694C56.597 21.7712 55.192 23.1762 53.6901 23.1762C52.927 23.1762 52.3093 22.8976 51.6916 22.2678C50.4562 21.0445 50.4562 19.4942 51.6916 18.2709C52.5395 17.4109 53.4479 17.1808 54.5864 17.5078ZM54.5864 36.8869C55.628 37.2018 56.597 38.5342 56.597 39.6484C56.597 41.1503 55.192 42.5553 53.6901 42.5553C52.1882 42.5553 50.7832 41.1503 50.7832 39.6484C50.7832 38.8854 51.0618 38.2677 51.6916 37.65C52.5395 36.79 53.4479 36.5599 54.5864 36.8869Z" fill="#878787"/>
<path d="M10.9135 13.2079L7.934 16.1875L7.15883 15.8362C6.49268 15.5334 6.25044 15.485 5.23304 15.485C4.14296 15.485 4.03396 15.5092 3.1619 15.9331C2.05971 16.4782 1.38144 17.1806 0.848519 18.3071C0.497273 19.0459 0.460938 19.2276 0.460938 20.2692C0.460938 21.3108 0.497273 21.4925 0.848519 22.2313C1.35722 23.3214 2.05971 24.0481 3.10134 24.5689C3.56159 24.799 4.02184 24.9928 4.10663 24.9928C4.25197 24.9928 4.27619 25.8407 4.27619 29.9587C4.27619 34.0768 4.25197 34.9246 4.10663 34.9246C4.02184 34.9246 3.56159 35.1184 3.10134 35.3485C2.05971 35.8694 1.35722 36.5961 0.848519 37.6861C0.497273 38.425 0.460938 38.6066 0.460938 39.6604C0.460938 40.7505 0.485161 40.8595 0.909079 41.7315C1.45412 42.8337 2.15661 43.512 3.28302 44.0449C4.02184 44.3961 4.20352 44.4325 5.24515 44.4325C6.25044 44.4325 6.49268 44.384 7.15883 44.0812L7.934 43.73L11.8098 47.6179L15.6977 51.4937L15.3465 52.2689C15.0437 52.9351 14.9953 53.1773 14.9953 54.1947C14.9953 55.2848 15.0195 55.3938 15.4555 56.2658C15.9884 57.368 16.6909 58.0342 17.8416 58.5913C18.5562 58.9305 18.7378 58.9668 19.7795 58.9668C20.8211 58.9668 21.0028 58.9305 21.7416 58.5792C22.8317 58.0705 23.5584 57.368 24.0792 56.3264C24.3093 55.8661 24.5031 55.4059 24.5031 55.3211C24.5031 55.1758 25.351 55.1515 29.469 55.1515C33.5871 55.1515 34.4349 55.1758 34.4349 55.3211C34.4349 55.4059 34.6287 55.8661 34.8588 56.3264C35.3796 57.368 36.1063 58.0705 37.1964 58.5792C37.9352 58.9305 38.1169 58.9668 39.1586 58.9668C40.2002 58.9668 40.3819 58.9305 41.1207 58.5792C42.2471 58.0463 42.9496 57.368 43.4946 56.2658C43.9185 55.3938 43.9428 55.2848 43.9428 54.1947C43.9428 53.1773 43.8943 52.9351 43.5915 52.2689L43.2403 51.5058L45.3477 49.3863L47.4552 47.2788L46.7527 46.5884L46.0623 45.8859L43.9549 47.9934L41.8353 50.1009L41.0722 49.7496C40.4061 49.4468 40.1638 49.3984 39.1586 49.3984C38.1169 49.3984 37.9352 49.4347 37.1964 49.786C36.1063 50.2947 35.3796 50.9971 34.8588 52.0388C34.6287 52.499 34.4349 52.9593 34.4349 53.0441C34.4349 53.1894 33.5871 53.2136 29.469 53.2136C25.351 53.2136 24.5031 53.1894 24.5031 53.0441C24.5031 52.6201 23.6068 51.1304 23.0497 50.6217L22.4441 50.0888L22.6863 49.5195C22.8196 49.2046 22.9286 48.8897 22.9286 48.8049C22.9286 48.6717 21.5115 48.0661 21.2692 48.0903C21.2208 48.1024 21.0633 48.381 20.918 48.7201L20.6757 49.3499L19.6462 49.3741C18.8347 49.4105 18.4714 49.4832 17.8658 49.7617L17.0906 50.1009L13.2148 46.2129L9.32687 42.3371L9.666 41.562C9.94458 40.9564 10.0172 40.593 10.0536 39.7815L10.0778 38.752L13.4449 37.4076C15.298 36.6687 16.9089 36.0268 17.0179 35.9784C17.2238 35.9057 17.2238 35.8572 16.9816 35.2638C16.8363 34.9125 16.6788 34.5007 16.6182 34.3554C16.5214 34.101 16.4366 34.1252 12.9241 35.5302L9.32687 36.9715L8.79394 36.378C8.29736 35.8209 6.80759 34.9246 6.38367 34.9246C6.23833 34.9246 6.2141 34.0768 6.2141 29.9587C6.2141 25.8407 6.23833 24.9928 6.38367 24.9928C6.80759 24.9928 8.29736 24.0966 8.79394 23.5394L9.32687 22.9459L12.9241 24.3872C16.4366 25.7922 16.5214 25.8164 16.6182 25.5621C16.6788 25.4168 16.8363 25.005 16.9816 24.6537C17.2238 24.0602 17.2238 24.0118 17.0179 23.9391C16.9089 23.8907 15.298 23.2487 13.4449 22.5099L10.0778 21.1655L10.0536 20.136C10.0172 19.3245 9.94458 18.9611 9.666 18.3555L9.32687 17.5924L12.3064 14.6008L15.298 11.6092L14.6319 10.9067C14.2806 10.5312 13.9657 10.2163 13.9415 10.2163C13.9173 10.2163 12.5608 11.5607 10.9135 13.2079ZM6.14143 17.5077C7.18306 17.8226 8.15201 19.1549 8.15201 20.2692C8.15201 21.7711 6.74703 23.176 5.24515 23.176C4.4821 23.176 3.86439 22.8975 3.24668 22.2677C2.01126 21.0443 2.01126 19.494 3.24668 18.2707C4.09452 17.4108 5.00291 17.1806 6.14143 17.5077ZM6.14143 36.8868C6.80759 37.0805 7.81288 38.0858 8.00667 38.752C8.3458 39.8905 8.10356 40.7989 7.24362 41.6467C6.02031 42.8822 4.46999 42.8822 3.24668 41.6467C2.01126 40.4234 2.01126 38.8731 3.24668 37.6498C4.09452 36.7899 5.00291 36.5597 6.14143 36.8868ZM20.6757 51.4211C21.7174 51.736 22.6863 53.0683 22.6863 54.1826C22.6863 55.6845 21.2813 57.0894 19.7795 57.0894C18.2776 57.0894 16.8726 55.6845 16.8726 54.1826C16.8726 53.4195 17.1512 52.8018 17.781 52.1841C18.6288 51.3242 19.5372 51.094 20.6757 51.4211ZM40.0548 51.4211C41.0965 51.736 42.0654 53.0683 42.0654 54.1826C42.0654 55.6845 40.6604 57.0894 39.1586 57.0894C37.6567 57.0894 36.2517 55.6845 36.2517 54.1826C36.2517 53.4195 36.5303 52.8018 37.1601 52.1841C38.0079 51.3242 38.9163 51.094 40.0548 51.4211Z" fill="#878787"/>
<path d="M21.7647 13.5955C21.1833 13.7409 20.1538 14.3464 19.8268 14.734C19.6572 14.9399 19.3786 15.376 19.2091 15.7151C18.9305 16.2601 18.8821 16.5145 18.8336 17.8105L18.7852 19.3002H19.7541H20.7231L20.7715 17.98C20.8078 16.5508 20.9169 16.2722 21.6436 15.7393C21.9221 15.5213 22.1886 15.485 23.4725 15.4486L24.9744 15.4002L25.3983 16.2601C25.6405 16.7325 25.9433 17.1685 26.0644 17.2412C26.2098 17.3139 27.5057 17.3623 29.4679 17.3623C31.43 17.3623 32.726 17.3139 32.8713 17.2412C32.9924 17.1685 33.2952 16.7325 33.5254 16.2722L33.9493 15.4244H35.2816C36.844 15.4244 37.2801 15.5576 37.7767 16.2238L38.1279 16.6719L38.1642 25.5136L38.1885 34.3554L37.1226 33.3258C35.9962 32.2479 35.3422 31.8966 34.4338 31.8966C32.8592 31.8966 31.4058 33.3501 31.4058 34.9246C31.4058 35.9541 31.7207 36.4628 33.4043 38.1948L34.9909 39.8299L34.7002 40.6172C34.0946 42.216 34.2158 44.3598 34.9788 46.0555C35.1484 46.4067 35.2816 46.8549 35.2816 47.0487V47.3999H36.2506H37.2195V46.8064C37.2195 46.3704 37.0984 45.9586 36.7714 45.2682C36.3232 44.3356 36.3111 44.275 36.3111 42.9669C36.3111 41.6588 36.3232 41.5983 36.7714 40.7262C37.0136 40.2296 37.2195 39.6967 37.2195 39.5393C37.2195 39.3212 36.6987 38.7278 35.2816 37.2864C33.5859 35.5665 33.3437 35.2759 33.3437 34.9367C33.3437 34.3917 33.913 33.8345 34.4459 33.8345C34.8092 33.8345 35.1241 34.1131 37.5829 36.5597C39.0847 38.0616 40.3686 39.2849 40.4292 39.2849C40.5866 39.2849 41.7009 38.1464 41.7009 38.001C41.7009 37.9405 41.3497 37.5287 40.9137 37.1048L40.1264 36.3296V32.8656V29.4137L41.2164 30.5038C41.9311 31.2063 42.4276 31.8361 42.6457 32.26L42.9727 32.9261L43.009 38.7156L43.0454 44.493H44.0022H44.9711V38.9216C44.9711 35.3485 44.9227 33.132 44.8379 32.7202C44.5472 31.3395 44.0749 30.637 42.0401 28.5659L40.1385 26.6158L40.1022 21.4804L40.0658 16.3328L39.7388 15.7151C39.2543 14.7946 38.891 14.4191 38.0431 13.9589L37.2801 13.5471L29.7101 13.5228C25.5436 13.5107 21.9706 13.5471 21.7647 13.5955Z" fill="#878787"/>
<path d="M18.8367 32.8894L18.8731 44.5532L19.2001 45.1709C19.6846 46.0914 20.0479 46.4669 20.8958 46.9271L21.6588 47.3389L27.5089 47.3753L33.3468 47.4116V46.4427V45.4737L27.6784 45.4374L21.9979 45.401L21.5498 45.0498C20.702 44.4079 20.7504 45.0982 20.7504 32.5624V21.2377H19.7815H18.8125L18.8367 32.8894Z" fill="#878787"/>
<path d="M28.1944 23.261C26.7289 23.4669 24.8879 24.2542 23.7494 25.1747C23.3618 25.4896 23.0469 25.7803 23.0469 25.8287C23.0469 25.8772 23.3376 26.2042 23.7009 26.5554L24.3671 27.2095L24.8879 26.7613C25.9901 25.8166 27.928 25.1141 29.4662 25.1141C31.0044 25.1141 32.9423 25.8166 34.0445 26.7613L34.5774 27.2095L35.2557 26.5191L35.9461 25.8287L35.4616 25.4048C33.5721 23.7576 30.7137 22.9097 28.1944 23.261Z" fill="url(#paint0_linear_55_3945)"/>
<path d="M28.1977 26.9912C27.8707 27.088 27.5558 27.1607 27.5195 27.1728C27.3741 27.1728 25.957 28.166 25.957 28.2508C25.957 28.3719 27.1198 29.5952 27.2288 29.5952C27.2772 29.5952 27.471 29.4862 27.6527 29.353C28.1372 29.0138 28.9245 28.7474 29.4695 28.7474C30.0145 28.7474 30.8018 29.0138 31.2863 29.353C31.468 29.4862 31.6617 29.5952 31.7102 29.5952C31.8071 29.5952 32.982 28.3719 32.982 28.2629C32.982 28.1054 31.7223 27.3061 31.1652 27.1002C30.39 26.8337 28.9366 26.7731 28.1977 26.9912Z" fill="url(#paint1_linear_55_3945)"/>
<path d="M24.625 33.8348V34.8037H25.594H26.5629V33.8348V32.8658H25.594H24.625V33.8348Z" fill="url(#paint2_linear_55_3945)"/>
<path d="M28.5 33.8348V34.8037H29.469H30.4379V33.8348V32.8658H29.469H28.5V33.8348Z" fill="url(#paint3_linear_55_3945)"/>
<path d="M27.5312 42.5555V43.5244H29.4692H31.4071V42.5555V41.5865H29.4692H27.5312V42.5555Z" fill="url(#paint4_linear_55_3945)"/>
<defs>
<linearGradient id="paint0_linear_55_3945" x1="20.4694" y1="23.4492" x2="23.5986" y2="33.8261" gradientUnits="userSpaceOnUse">
<stop stop-color="#D41700"/>
<stop offset="1" stop-color="#7F0011"/>
</linearGradient>
<linearGradient id="paint1_linear_55_3945" x1="24.5533" y1="27.0397" x2="27.0894" y2="33.7789" gradientUnits="userSpaceOnUse">
<stop stop-color="#D41700"/>
<stop offset="1" stop-color="#7F0011"/>
</linearGradient>
<linearGradient id="paint2_linear_55_3945" x1="24.2378" y1="32.9941" x2="26.9601" y2="35.8124" gradientUnits="userSpaceOnUse">
<stop stop-color="#D41700"/>
<stop offset="1" stop-color="#7F0011"/>
</linearGradient>
<linearGradient id="paint3_linear_55_3945" x1="28.1128" y1="32.9941" x2="30.8351" y2="35.8124" gradientUnits="userSpaceOnUse">
<stop stop-color="#D41700"/>
<stop offset="1" stop-color="#7F0011"/>
</linearGradient>
<linearGradient id="paint4_linear_55_3945" x1="26.7568" y1="41.7148" x2="28.8903" y2="46.1323" gradientUnits="userSpaceOnUse">
<stop stop-color="#D41700"/>
<stop offset="1" stop-color="#7F0011"/>
</linearGradient>
</defs>
</svg>
