<svg width="203" height="262" viewBox="0 0 203 262" fill="none" xmlns="http://www.w3.org/2000/svg">
<path d="M2.25558 204.771L32.3296 187.459L101.462 227.264L140.484 204.733L71.4259 164.853L101.801 147.692L200.707 204.733L101.462 262L2.21798 204.733L2.25558 204.771ZM203 166.167V200.715L103.756 143.524V118.101L133.83 100.752V126.099L203 166.017V166.167ZM203 61.0219V160.309L172.926 142.96V78.3709L203 61.0219ZM200.744 57.2667L170.67 74.6157L101.5 34.7356L62.4789 57.2667L131.574 97.1844L101.199 114.346L2.25558 57.2292L101.462 0L200.744 57.2292V57.2667ZM0 95.8701V61.0219L99.2444 118.289V143.711L69.1704 161.06V135.638L0 95.7575V95.8701ZM0 101.015L30.0741 119.528V183.704L0 201.016V100.902V101.015Z" fill="url(#paint0_linear_55_4122)"/>
<defs>
<linearGradient id="paint0_linear_55_4122" x1="-40.5624" y1="244.651" x2="318.932" y2="-43.7144" gradientUnits="userSpaceOnUse">
<stop stop-color="#D41700"/>
<stop offset="1" stop-color="#7F0011"/>
</linearGradient>
</defs>
</svg>
