<svg width="59" height="59" viewBox="0 0 59 59" fill="none" xmlns="http://www.w3.org/2000/svg">
<path d="M2.23468 0.418129C1.63785 0.613014 0.614714 1.66051 0.432011 2.2817C0.212767 3.01251 0.212767 55.972 0.432011 56.7028C0.626894 57.3727 1.63785 58.3837 2.30776 58.5786C3.01421 58.7857 30.6633 58.7857 31.3697 58.5786C31.9666 58.3959 32.8313 57.6529 33.1237 57.0561C33.3307 56.6419 33.3551 56.1791 33.416 52.2692L33.4769 47.9453L34.5488 47.8478C35.9008 47.726 38.081 47.1779 39.4817 46.5933C44.4391 44.547 48.3733 40.3083 50.0176 35.217C50.6875 33.1829 50.8946 31.7943 50.8946 29.4923C50.8946 26.4716 50.3343 23.9746 49.0676 21.3924C46.327 15.7652 40.5171 11.6726 34.5122 11.1367L33.4769 11.0393L33.416 6.71529C33.3551 2.80545 33.3307 2.3426 33.1237 1.92847C32.8313 1.33165 31.9666 0.588654 31.3697 0.405949C30.712 0.211067 2.86805 0.223248 2.23468 0.418129ZM5.64514 3.30484C5.96182 4.59594 6.36377 5.21713 7.19202 5.70434L7.77667 6.04538H16.8509H25.9252L26.4733 5.74088C27.3015 5.27803 27.74 4.60812 28.0567 3.31702L28.3247 2.20862H29.6036C30.7851 2.20862 30.8947 2.23298 31.1748 2.51313L31.4672 2.80545L31.4428 6.92236L31.4063 11.0393L30.5415 11.1123C27.6304 11.3803 24.7072 12.4278 22.0762 14.1818C20.5293 15.1927 18.1177 17.5922 17.1067 19.1269C15.6694 21.295 14.695 23.7189 14.22 26.2645C13.9033 27.9454 13.9033 31.0392 14.22 32.72C15.0604 37.2876 17.5087 41.2949 21.1505 44.1207C23.9642 46.3009 27.5208 47.6773 30.98 47.9209L31.4063 47.9453L31.4428 52.0622L31.4672 56.1791L31.1748 56.4714L30.8703 56.7759H16.8509H2.83151L2.53919 56.4714L2.23468 56.1791V29.4923V2.80545L2.53919 2.51313C2.80715 2.23298 2.91677 2.20862 4.09825 2.20862H5.37717L5.64514 3.30484ZM26.1566 2.90289C26.047 3.34138 25.8521 3.71896 25.6694 3.87731L25.3649 4.15745H16.8509H8.33696L8.03246 3.87731C7.84975 3.71896 7.65487 3.34138 7.54525 2.90289L7.37473 2.20862H16.8509H26.3271L26.1566 2.90289ZM33.6718 13.2317C34.8045 13.8164 35.9617 15.1805 36.8386 17.0076C37.4355 18.2378 37.9348 19.6628 37.813 19.7846C37.6669 19.9308 35.4257 20.4667 34.3661 20.6007C33.0871 20.7591 31.796 20.7591 30.4927 20.6007C29.4452 20.4667 27.2163 19.9308 27.0579 19.7725C26.8509 19.5532 28.0689 16.7152 28.9093 15.485C29.835 14.1209 30.5658 13.4631 31.5524 13.0977C32.1249 12.8907 33.1115 12.9516 33.6718 13.2317ZM27.7278 13.8042C27.6791 13.8894 27.4355 14.267 27.1919 14.6324C26.6073 15.5216 25.8399 17.0563 25.4989 18.0429C25.3405 18.4814 25.1822 18.8711 25.1456 18.9199C24.9995 19.0904 21.857 17.0685 21.8448 16.8127C21.8448 16.7761 22.3077 16.4107 22.8801 15.9966C24.6097 14.7664 28.1298 13.183 27.7278 13.8042ZM38.6535 14.1574C39.1529 14.3645 39.9202 14.7177 40.3587 14.9613C41.2235 15.4363 43.0384 16.6909 43.0384 16.8127C43.0384 17.0563 39.8837 19.0782 39.7497 18.932C39.701 18.8711 39.5426 18.4814 39.3843 18.0429C39.0432 17.0563 38.2759 15.5216 37.6912 14.6324C37.4476 14.267 37.204 13.8894 37.1431 13.792C37.0092 13.5727 37.4233 13.6702 38.6535 14.1574ZM22.1249 19.4801C22.6 19.809 23.343 20.2597 23.7693 20.4789C24.1834 20.686 24.5488 20.9052 24.5732 20.9539C24.5975 20.9905 24.5123 21.5142 24.3905 22.1232C24.1225 23.4143 23.8424 25.6677 23.7327 27.3242L23.6475 28.5179H19.7864H15.9252L16.0227 27.58C16.3637 24.3766 17.9715 20.7591 19.9934 18.6275L20.4197 18.1769L20.8338 18.5301C21.0531 18.725 21.6377 19.1513 22.1249 19.4801ZM45.718 19.6263C47.4354 21.9649 48.5682 24.8151 48.8605 27.58L48.9579 28.5179H45.0846C41.4306 28.5179 41.2113 28.5057 41.2113 28.2986C41.2113 26.9222 40.5658 21.8796 40.2978 21.1854C40.2369 21.0392 40.4074 20.8809 41.053 20.5276C42.0883 19.9552 43.9031 18.7372 44.1955 18.4083C44.4147 18.1647 44.4269 18.1647 44.7801 18.4935C44.975 18.6884 45.3891 19.1878 45.718 19.6263ZM28.1176 22.1232C31.2114 22.8662 33.9154 22.8541 37.0092 22.0623C37.7521 21.8796 38.3855 21.7578 38.4342 21.8066C38.6291 22.0014 39.2625 26.8857 39.2625 28.2864C39.2625 28.5057 39.0067 28.5179 32.4416 28.5179C25.8764 28.5179 25.6207 28.5057 25.6207 28.2864C25.6207 26.9953 26.2297 22.1111 26.4367 21.7822C26.4733 21.7213 26.5829 21.7213 26.7047 21.7578C26.8143 21.8066 27.4477 21.9649 28.1176 22.1232ZM23.7327 31.6482C23.8424 33.3169 24.1225 35.5702 24.3905 36.8613C24.5123 37.4581 24.5975 37.994 24.5732 38.0306C24.5488 38.0793 24.1834 38.2986 23.7693 38.5056C22.8801 38.9685 21.4185 39.9429 20.8338 40.4545L20.4197 40.8077L19.9934 40.357C17.9715 38.2255 16.3637 34.608 16.0227 31.4046L15.9252 30.4667H19.7864H23.6475L23.7327 31.6482ZM39.2625 30.6981C39.2625 32.0988 38.6291 36.9831 38.4342 37.178C38.3855 37.2267 37.7521 37.1049 37.0092 36.9222C33.8301 36.1183 31.053 36.1183 27.874 36.9222C27.1432 37.1049 26.4976 37.2267 26.4489 37.178C26.254 36.9831 25.6207 32.0988 25.6207 30.6981C25.6207 30.4789 25.8764 30.4667 32.4416 30.4667C39.0067 30.4667 39.2625 30.4789 39.2625 30.6981ZM48.8605 31.4046C48.5194 34.608 46.9117 38.2255 44.8897 40.357L44.4634 40.8077L44.0493 40.4545C43.5134 39.9794 42.0761 39.0294 41.053 38.4569C40.4074 38.1037 40.2369 37.9453 40.2978 37.7992C40.5658 37.1049 41.2113 32.0623 41.2113 30.6859C41.2113 30.4789 41.4306 30.4667 45.0846 30.4667H48.9579L48.8605 31.4046ZM34.4757 38.396C35.4135 38.5178 37.0213 38.8954 37.6182 39.1146L37.9227 39.2243L37.5451 40.2961C36.388 43.5726 34.5488 45.765 32.7704 46.0086C31.1748 46.2279 29.4331 44.7784 28.1054 42.0988C27.5451 40.9538 26.9483 39.3582 27.0336 39.2243C27.1067 39.0903 28.9946 38.6031 30.0664 38.4447C31.2966 38.2498 33.2455 38.2255 34.4757 38.396ZM25.4989 40.9417C25.8399 41.9283 26.6073 43.463 27.1919 44.3521C27.4355 44.7175 27.6791 45.0951 27.74 45.1925C27.8253 45.3265 27.7766 45.3387 27.4964 45.2778C26.7778 45.0951 25.2918 44.4496 24.3417 43.9014C23.343 43.329 21.8448 42.2815 21.8448 42.1719C21.857 41.9161 24.9995 39.9063 25.1456 40.0647C25.1822 40.1134 25.3405 40.5032 25.4989 40.9417ZM42.1005 41.4045C42.612 41.7699 43.0384 42.111 43.0384 42.1597C43.0384 42.3302 41.053 43.6578 39.9446 44.2303C38.824 44.7906 37.2284 45.3996 37.131 45.3022C37.0944 45.2778 37.2649 44.9855 37.4964 44.6688C38.2272 43.6335 39.092 41.8552 39.6888 40.1134C39.7619 39.9063 40.7241 40.4179 42.1005 41.4045Z" fill="#878787"/>
<path d="M4.18359 53.8527V54.8271H5.15801H6.13243V53.8527V52.8783H5.15801H4.18359V53.8527Z" fill="#878787"/>
<path d="M8.08008 53.8527V54.8271H16.8498H25.6196V53.8527V52.8783H16.8498H8.08008V53.8527Z" fill="#878787"/>
<path d="M27.5684 53.8527V54.8271H28.5428H29.5172V53.8527V52.8783H28.5428H27.5684V53.8527Z" fill="#878787"/>
<path d="M37.8622 5.52169C37.6064 6.45957 37.3993 7.31218 37.3872 7.40963C37.375 7.54361 37.6186 7.66541 38.1667 7.82375C38.6052 7.94555 39.0193 8.043 39.0802 8.05518C39.1533 8.05518 39.4212 7.27564 39.6649 6.31341C40.1155 4.62036 40.1764 4.27931 40.0546 4.27931C40.0181 4.27931 39.6161 4.16969 39.1533 4.04789L38.325 3.81647L37.8622 5.52169Z" fill="url(#paint0_linear_55_3888)"/>
<path d="M44.2454 7.10502C43.9653 7.59223 43.5268 8.3474 43.271 8.78589L42.8203 9.5776L43.4415 9.96737C44.0749 10.3693 44.489 10.552 44.5499 10.4668C44.5743 10.4546 45.0006 9.71159 45.5121 8.82243C46.1699 7.66531 46.3891 7.19028 46.2917 7.10502C46.2064 7.04412 45.8288 6.82488 45.4512 6.60563L44.757 6.21587L44.2454 7.10502Z" fill="url(#paint1_linear_55_3888)"/>
<path d="M48.9453 11.5876L47.6055 12.9274L48.3119 13.6217L49.0062 14.3281L50.3704 12.9639L51.7467 11.5876L51.0768 10.9177C50.7114 10.5523 50.3826 10.2478 50.346 10.2478C50.3095 10.2478 49.6761 10.8568 48.9453 11.5876Z" fill="url(#paint2_linear_55_3888)"/>
<path d="M53.0614 16.4473C52.1722 16.9589 51.4414 17.4218 51.4414 17.4827C51.4414 17.5436 51.6485 17.9455 51.8921 18.3596L52.3427 19.1392L52.8909 18.8103C53.2075 18.6398 53.9627 18.2013 54.5839 17.8359L55.7045 17.1781L55.3756 16.5691C54.7057 15.3877 54.8762 15.3998 53.0614 16.4473Z" fill="url(#paint3_linear_55_3888)"/>
<path d="M55.5228 22.2819C54.658 22.5255 53.9151 22.7325 53.8907 22.7447C53.8298 22.7934 54.2561 24.4134 54.3535 24.523C54.4144 24.5961 58.0076 23.7191 58.0929 23.6095C58.105 23.5973 57.9954 23.1832 57.8736 22.696C57.5813 21.6485 57.7275 21.6729 55.5228 22.2819Z" fill="url(#paint4_linear_55_3888)"/>
<path d="M54.8535 29.4924V30.4668H56.8023H58.7512V29.4924V28.518H56.8023H54.8535V29.4924Z" fill="url(#paint5_linear_55_3888)"/>
<path d="M54.3041 34.5102C54.1336 35.0583 53.8534 36.2033 53.89 36.2398C53.9996 36.3251 57.544 37.202 57.5806 37.1533C57.6536 37.0802 58.1409 35.3385 58.08 35.3385C58.0556 35.3385 57.2273 35.1192 56.2407 34.8513C55.242 34.5833 54.4137 34.3641 54.4015 34.3641C54.3772 34.3641 54.3406 34.4371 54.3041 34.5102Z" fill="url(#paint6_linear_55_3888)"/>
<path d="M51.8921 40.6249C51.6485 41.0391 51.4414 41.441 51.4414 41.5019C51.4414 41.5628 52.1844 42.0378 53.0857 42.5494L54.7301 43.4751L55.1685 42.7321C55.4243 42.318 55.6436 41.9404 55.6679 41.8917C55.7045 41.8186 55.0589 41.4288 52.8909 40.1743L52.3427 39.8454L51.8921 40.6249Z" fill="url(#paint7_linear_55_3888)"/>
<path d="M48.2754 45.3874L47.6055 46.0573L48.9818 47.4337L50.346 48.7979L51.0403 48.0914L51.7467 47.3971L50.4069 46.0573C49.6761 45.3265 49.0427 44.7175 49.0062 44.7175C48.9697 44.7175 48.6408 45.022 48.2754 45.3874Z" fill="url(#paint8_linear_55_3888)"/>
<path d="M43.5875 48.9319C43.1855 49.1755 42.8445 49.3825 42.8323 49.3947C42.8201 49.4069 43.2464 50.1499 43.7702 51.0512C44.3426 52.0378 44.7933 52.6834 44.8907 52.659C44.976 52.6346 45.3658 52.4276 45.7434 52.1962L46.4376 51.7698L45.4997 50.1377C44.9882 49.2364 44.5132 48.4934 44.4401 48.4934C44.3792 48.4934 43.9894 48.6883 43.5875 48.9319Z" fill="url(#paint9_linear_55_3888)"/>
<path d="M38.1058 51.1729C37.6064 51.319 37.375 51.4408 37.3872 51.5748C37.3994 51.6723 37.6064 52.5249 37.8622 53.4627L38.3251 55.168L39.1533 54.9365C39.6162 54.8147 40.0181 54.7051 40.0546 54.7051C40.1764 54.7051 40.1155 54.3641 39.6649 52.6588C39.1655 50.7344 39.2629 50.8318 38.1058 51.1729Z" fill="url(#paint10_linear_55_3888)"/>
<defs>
<linearGradient id="paint0_linear_55_3888" x1="36.8427" y1="4.09714" x2="42.337" y2="7.75092" gradientUnits="userSpaceOnUse">
<stop stop-color="#D41700"/>
<stop offset="1" stop-color="#7F0011"/>
</linearGradient>
<linearGradient id="paint1_linear_55_3888" x1="42.1223" y1="6.49871" x2="48.044" y2="11.5127" gradientUnits="userSpaceOnUse">
<stop stop-color="#D41700"/>
<stop offset="1" stop-color="#7F0011"/>
</linearGradient>
<linearGradient id="paint2_linear_55_3888" x1="46.778" y1="10.5179" x2="52.5063" y2="16.5369" gradientUnits="userSpaceOnUse">
<stop stop-color="#D41700"/>
<stop offset="1" stop-color="#7F0011"/>
</linearGradient>
<linearGradient id="paint3_linear_55_3888" x1="50.5896" y1="15.9015" x2="55.3247" y2="21.9287" gradientUnits="userSpaceOnUse">
<stop stop-color="#D41700"/>
<stop offset="1" stop-color="#7F0011"/>
</linearGradient>
<linearGradient id="paint4_linear_55_3888" x1="53.0437" y1="22.0357" x2="56.3844" y2="27.4912" gradientUnits="userSpaceOnUse">
<stop stop-color="#D41700"/>
<stop offset="1" stop-color="#7F0011"/>
</linearGradient>
<linearGradient id="paint5_linear_55_3888" x1="54.0747" y1="28.647" x2="56.2202" y2="33.0894" gradientUnits="userSpaceOnUse">
<stop stop-color="#D41700"/>
<stop offset="1" stop-color="#7F0011"/>
</linearGradient>
<linearGradient id="paint6_linear_55_3888" x1="53.0478" y1="34.5489" x2="56.6154" y2="40.1045" gradientUnits="userSpaceOnUse">
<stop stop-color="#D41700"/>
<stop offset="1" stop-color="#7F0011"/>
</linearGradient>
<linearGradient id="paint7_linear_55_3888" x1="50.5966" y1="40.0857" x2="55.6103" y2="46.1319" gradientUnits="userSpaceOnUse">
<stop stop-color="#D41700"/>
<stop offset="1" stop-color="#7F0011"/>
</linearGradient>
<linearGradient id="paint8_linear_55_3888" x1="46.778" y1="44.9877" x2="52.5063" y2="51.0066" gradientUnits="userSpaceOnUse">
<stop stop-color="#D41700"/>
<stop offset="1" stop-color="#7F0011"/>
</linearGradient>
<linearGradient id="paint9_linear_55_3888" x1="42.1116" y1="48.7693" x2="47.9325" y2="53.9845" gradientUnits="userSpaceOnUse">
<stop stop-color="#D41700"/>
<stop offset="1" stop-color="#7F0011"/>
</linearGradient>
<linearGradient id="paint10_linear_55_3888" x1="36.8427" y1="51.256" x2="42.2974" y2="54.9261" gradientUnits="userSpaceOnUse">
<stop stop-color="#D41700"/>
<stop offset="1" stop-color="#7F0011"/>
</linearGradient>
</defs>
</svg>
